<mxfile host="app.diagrams.net" agent="Mozilla/5.0 (Windows NT 10.0; Win64; x64) AppleWebKit/537.36 (KHTML, like Gecko) Chrome/135.0.0.0 Safari/537.36" version="26.1.1">
  <diagram name="Page-1" id="4fc8d65c-f3f6-feb3-4d1c-02f59d9f9886">
    <mxGraphModel dx="2049" dy="1103" grid="1" gridSize="10" guides="1" tooltips="1" connect="1" arrows="1" fold="1" page="1" pageScale="1" pageWidth="826" pageHeight="1169" background="none" math="0" shadow="0">
      <root>
        <mxCell id="0" />
        <mxCell id="1" parent="0" />
        <mxCell id="2" value="Man" style="whiteSpace=wrap;strokeWidth=2" parent="1" vertex="1">
          <mxGeometry x="40.998333333333235" y="320" width="120" height="60" as="geometry" />
        </mxCell>
        <mxCell id="5" value="Method" style="whiteSpace=wrap;strokeWidth=2" parent="1" vertex="1">
          <mxGeometry x="40.998333333333235" y="610" width="120" height="60" as="geometry" />
        </mxCell>
        <mxCell id="8" value="Sour coffee" style="whiteSpace=wrap;strokeWidth=3" parent="1" vertex="1">
          <mxGeometry x="684.54" y="460" width="120" height="60" as="geometry" />
        </mxCell>
        <mxCell id="9" value="" style="edgeStyle=none;strokeWidth=4" parent="1" target="8" edge="1">
          <mxGeometry width="100" height="100" relative="1" as="geometry">
            <mxPoint x="124.54000000000002" y="490" as="sourcePoint" />
            <mxPoint x="244.53999999999996" y="440" as="targetPoint" />
          </mxGeometry>
        </mxCell>
        <mxCell id="12" value="" style="edgeStyle=none;exitX=0.5;exitY=1;strokeWidth=3" parent="1" source="2" edge="1">
          <mxGeometry width="100" height="100" relative="1" as="geometry">
            <mxPoint x="100.99833333333324" y="400" as="sourcePoint" />
            <mxPoint x="160.99833333333322" y="490" as="targetPoint" />
          </mxGeometry>
        </mxCell>
        <mxCell id="15" value="" style="edgeStyle=none;exitX=0.5;exitY=0;strokeWidth=3" parent="1" edge="1">
          <mxGeometry width="100" height="100" relative="1" as="geometry">
            <mxPoint x="100.99833333333324" y="610" as="sourcePoint" />
            <mxPoint x="160.99833333333322" y="490" as="targetPoint" />
          </mxGeometry>
        </mxCell>
        <mxCell id="16" value="" style="edgeStyle=none;endArrow=none;strokeWidth=2" parent="1" edge="1">
          <mxGeometry width="100" height="100" relative="1" as="geometry">
            <mxPoint x="66.99833333333324" y="430" as="sourcePoint" />
            <mxPoint x="126.99833333333322" y="430" as="targetPoint" />
          </mxGeometry>
        </mxCell>
        <mxCell id="19" value="" style="edgeStyle=none;endArrow=none;strokeWidth=1;" parent="1" edge="1">
          <mxGeometry width="100" height="100" relative="1" as="geometry">
            <mxPoint x="110.99833333333322" y="400" as="sourcePoint" />
            <mxPoint x="170.99833333333322" y="400" as="targetPoint" />
          </mxGeometry>
        </mxCell>
        <mxCell id="20" value="" style="edgeStyle=none;endArrow=none;strokeWidth=1;" parent="1" edge="1">
          <mxGeometry width="100" height="100" relative="1" as="geometry">
            <mxPoint x="137.73833333333323" y="450.1" as="sourcePoint" />
            <mxPoint x="197.73833333333323" y="450.1" as="targetPoint" />
          </mxGeometry>
        </mxCell>
        <mxCell id="25" value="" style="edgeStyle=none;endArrow=none;strokeWidth=2" parent="1" edge="1">
          <mxGeometry width="100" height="100" relative="1" as="geometry">
            <mxPoint x="90.99833333333324" y="510" as="sourcePoint" />
            <mxPoint x="150.99833333333322" y="510" as="targetPoint" />
          </mxGeometry>
        </mxCell>
        <mxCell id="26" value="" style="edgeStyle=none;endArrow=none;strokeWidth=1;" parent="1" edge="1">
          <mxGeometry width="100" height="100" relative="1" as="geometry">
            <mxPoint x="70.99833333333324" y="550" as="sourcePoint" />
            <mxPoint x="130.99833333333322" y="550" as="targetPoint" />
          </mxGeometry>
        </mxCell>
        <mxCell id="36" value="" style="edgeStyle=none;endArrow=none;strokeWidth=1;" parent="1" edge="1">
          <mxGeometry width="100" height="100" relative="1" as="geometry">
            <mxPoint x="121.82833333333322" y="571.53" as="sourcePoint" />
            <mxPoint x="181.82833333333323" y="571.53" as="targetPoint" />
          </mxGeometry>
        </mxCell>
        <mxCell id="38" value="" style="edgeStyle=none;endArrow=none;" parent="1" edge="1">
          <mxGeometry width="100" height="100" relative="1" as="geometry">
            <mxPoint x="107.46833333333323" y="430" as="sourcePoint" />
            <mxPoint x="93.41" y="410" as="targetPoint" />
          </mxGeometry>
        </mxCell>
        <mxCell id="39" value="" style="edgeStyle=none;endArrow=none;strokeWidth=2;" parent="1" edge="1">
          <mxGeometry width="100" height="100" relative="1" as="geometry">
            <mxPoint x="66.99833333333324" y="450" as="sourcePoint" />
            <mxPoint x="86.99833333333324" y="430" as="targetPoint" />
          </mxGeometry>
        </mxCell>
        <mxCell id="42" value="" style="edgeStyle=none;endArrow=none;" parent="1" edge="1">
          <mxGeometry width="100" height="100" relative="1" as="geometry">
            <mxPoint x="155.45608024691347" y="450.969598765432" as="sourcePoint" />
            <mxPoint x="178.2" y="470.5" as="targetPoint" />
          </mxGeometry>
        </mxCell>
        <mxCell id="43" value="" style="edgeStyle=none;endArrow=none;" parent="1" edge="1">
          <mxGeometry width="100" height="100" relative="1" as="geometry">
            <mxPoint x="168.01608024691348" y="450.969598765432" as="sourcePoint" />
            <mxPoint x="188.01608024691348" y="430.969598765432" as="targetPoint" />
          </mxGeometry>
        </mxCell>
        <mxCell id="48" value="" style="edgeStyle=none;endArrow=none;" parent="1" edge="1">
          <mxGeometry width="100" height="100" relative="1" as="geometry">
            <mxPoint x="145.5783333333332" y="570.97" as="sourcePoint" />
            <mxPoint x="165.5783333333332" y="550.97" as="targetPoint" />
          </mxGeometry>
        </mxCell>
        <mxCell id="50" value="" style="edgeStyle=none;endArrow=none;" parent="1" edge="1">
          <mxGeometry width="100" height="100" relative="1" as="geometry">
            <mxPoint x="100.99833333333324" y="570" as="sourcePoint" />
            <mxPoint x="120.99833333333322" y="550" as="targetPoint" />
          </mxGeometry>
        </mxCell>
        <mxCell id="52" value="" style="edgeStyle=none;endArrow=none;" parent="1" edge="1">
          <mxGeometry width="100" height="100" relative="1" as="geometry">
            <mxPoint x="100.99833333333324" y="570" as="sourcePoint" />
            <mxPoint x="120.99833333333322" y="550" as="targetPoint" />
          </mxGeometry>
        </mxCell>
        <mxCell id="53" value="" style="edgeStyle=none;endArrow=none;" parent="1" edge="1">
          <mxGeometry width="100" height="100" relative="1" as="geometry">
            <mxPoint x="70.99833333333324" y="570" as="sourcePoint" />
            <mxPoint x="90.99833333333324" y="550" as="targetPoint" />
          </mxGeometry>
        </mxCell>
        <mxCell id="54" value="" style="edgeStyle=none;endArrow=none;strokeWidth=2;" parent="1" edge="1">
          <mxGeometry width="100" height="100" relative="1" as="geometry">
            <mxPoint x="120.99833333333322" y="530" as="sourcePoint" />
            <mxPoint x="140.99833333333322" y="510" as="targetPoint" />
          </mxGeometry>
        </mxCell>
        <mxCell id="114" value="Skills" style="text;spacingTop=-5;fontSize=8;align=center;verticalAlign=middle;points=[]" parent="1" vertex="1">
          <mxGeometry x="36.998333333333235" y="420" width="30" height="19.999999999999886" as="geometry" />
        </mxCell>
        <mxCell id="118" value="Storage" style="text;spacingTop=-5;fontSize=8;align=center;verticalAlign=middle;points=[]" parent="1" vertex="1">
          <mxGeometry x="60.99833333333321" y="500.0000000000002" width="30" height="19.999999999999886" as="geometry" />
        </mxCell>
        <mxCell id="119" value="Brewing&#xa;Process" style="text;spacingTop=-5;fontSize=8;align=center;verticalAlign=middle;points=[]" parent="1" vertex="1">
          <mxGeometry x="39.50833333333316" y="539.8599999999998" width="30" height="19.999999999999886" as="geometry" />
        </mxCell>
        <mxCell id="126" value="Improper storage &#xa;of coffee beans" style="text;spacingTop=-5;fontSize=6;align=center;verticalAlign=middle;points=[]" parent="1" vertex="1">
          <mxGeometry x="81.99833333333306" y="522.4966666666668" width="30" height="19.999999999999886" as="geometry" />
        </mxCell>
        <mxCell id="127" value="too short" style="text;spacingTop=-5;fontSize=6;align=center;verticalAlign=middle;points=[]" parent="1" vertex="1">
          <mxGeometry x="44.05388888888878" y="570.9722222222222" width="30" height="19.999999999999886" as="geometry" />
        </mxCell>
        <mxCell id="128" value="too long" style="text;spacingTop=-5;fontSize=6;align=center;verticalAlign=middle;points=[]" parent="1" vertex="1">
          <mxGeometry x="79.05388888888864" y="570.9722222222223" width="30" height="19.999999999999886" as="geometry" />
        </mxCell>
        <mxCell id="129" value="Incorrect&#xa;beans" style="text;spacingTop=-5;fontSize=6;align=center;verticalAlign=middle;points=[]" parent="1" vertex="1">
          <mxGeometry x="187.196111111111" y="418.8888888888888" width="30" height="19.999999999999886" as="geometry" />
        </mxCell>
        <mxCell id="130" value="&#xa;Incorrect &#xa;program" style="text;spacingTop=-5;fontSize=6;align=center;verticalAlign=middle;points=[]" parent="1" vertex="1">
          <mxGeometry x="178.58611111111085" y="461.5288888888889" width="30" height="19.999999999999886" as="geometry" />
        </mxCell>
        <mxCell id="134" value="Infrequent cleaning &#xa;leading to residue build-up." style="text;spacingTop=-5;fontSize=6;align=center;verticalAlign=middle;points=[]" parent="1" vertex="1">
          <mxGeometry x="167.5216666666664" y="530.0033333333334" width="30" height="19.999999999999886" as="geometry" />
        </mxCell>
        <mxCell id="137" value="Knowledge" style="text;spacingTop=-5;fontSize=8;align=center;verticalAlign=middle;points=[]" parent="1" vertex="1">
          <mxGeometry x="178.59166666666653" y="390.9722222222223" width="30" height="19.999999999999886" as="geometry" />
        </mxCell>
        <mxCell id="138" value="Attention&#xa;to detail" style="text;spacingTop=-5;fontSize=8;align=center;verticalAlign=middle;points=[]" parent="1" vertex="1">
          <mxGeometry x="200.58166666666654" y="441.53222222222223" width="30" height="19.999999999999886" as="geometry" />
        </mxCell>
        <mxCell id="141" value="Cleaning&#xa;routing" style="text;spacingTop=-5;fontSize=8;align=center;verticalAlign=middle;points=[]" parent="1" vertex="1">
          <mxGeometry x="187.03166666666647" y="559.862222222222" width="30" height="19.999999999999886" as="geometry" />
        </mxCell>
        <mxCell id="143" value="Machine" style="whiteSpace=wrap;strokeWidth=2" parent="1" vertex="1">
          <mxGeometry x="264.54" y="320" width="120" height="60" as="geometry" />
        </mxCell>
        <mxCell id="144" value="Measurement" style="whiteSpace=wrap;strokeWidth=2" parent="1" vertex="1">
          <mxGeometry x="264.54" y="610" width="120" height="60" as="geometry" />
        </mxCell>
        <mxCell id="145" value="" style="edgeStyle=none;exitX=0.5;exitY=1;strokeWidth=3" parent="1" source="143" edge="1">
          <mxGeometry width="100" height="100" relative="1" as="geometry">
            <mxPoint x="324.54" y="399.9999999999999" as="sourcePoint" />
            <mxPoint x="384.54" y="490" as="targetPoint" />
          </mxGeometry>
        </mxCell>
        <mxCell id="146" value="" style="edgeStyle=none;exitX=0.5;exitY=0;strokeWidth=3" parent="1" edge="1">
          <mxGeometry width="100" height="100" relative="1" as="geometry">
            <mxPoint x="324.54000000000013" y="610" as="sourcePoint" />
            <mxPoint x="384.54" y="490" as="targetPoint" />
          </mxGeometry>
        </mxCell>
        <mxCell id="153" value="" style="edgeStyle=none;endArrow=none;strokeWidth=2" parent="1" edge="1">
          <mxGeometry width="100" height="100" relative="1" as="geometry">
            <mxPoint x="314.54" y="510" as="sourcePoint" />
            <mxPoint x="374.54000000000013" y="510" as="targetPoint" />
          </mxGeometry>
        </mxCell>
        <mxCell id="155" value="" style="edgeStyle=none;endArrow=none;strokeWidth=1;" parent="1" edge="1">
          <mxGeometry width="100" height="100" relative="1" as="geometry">
            <mxPoint x="282.0000000000001" y="578" as="sourcePoint" />
            <mxPoint x="342" y="578" as="targetPoint" />
          </mxGeometry>
        </mxCell>
        <mxCell id="157" value="" style="edgeStyle=none;endArrow=none;strokeWidth=1;" parent="1" edge="1">
          <mxGeometry width="100" height="100" relative="1" as="geometry">
            <mxPoint x="354.5399999999999" y="550" as="sourcePoint" />
            <mxPoint x="414.54" y="550" as="targetPoint" />
          </mxGeometry>
        </mxCell>
        <mxCell id="170" value="" style="edgeStyle=none;endArrow=none;" parent="1" edge="1">
          <mxGeometry width="100" height="100" relative="1" as="geometry">
            <mxPoint x="374.12" y="550.42" as="sourcePoint" />
            <mxPoint x="394.12" y="530.42" as="targetPoint" />
          </mxGeometry>
        </mxCell>
        <mxCell id="174" value="" style="edgeStyle=none;endArrow=none;strokeWidth=2;" parent="1" edge="1">
          <mxGeometry width="100" height="100" relative="1" as="geometry">
            <mxPoint x="344.54" y="530" as="sourcePoint" />
            <mxPoint x="364.54" y="510" as="targetPoint" />
          </mxGeometry>
        </mxCell>
        <mxCell id="175" value="" style="edgeStyle=none;endArrow=none;strokeWidth=2;" parent="1" edge="1">
          <mxGeometry width="100" height="100" relative="1" as="geometry">
            <mxPoint x="314.54" y="530" as="sourcePoint" />
            <mxPoint x="334.54" y="510" as="targetPoint" />
          </mxGeometry>
        </mxCell>
        <mxCell id="179" value="Brewing&#xa;time" style="text;spacingTop=-5;fontSize=8;align=center;verticalAlign=middle;points=[]" parent="1" vertex="1">
          <mxGeometry x="284.54" y="500.0000000000002" width="30" height="19.999999999999886" as="geometry" />
        </mxCell>
        <mxCell id="181" value="Temperature" style="text;spacingTop=-5;fontSize=8;align=center;verticalAlign=middle;points=[]" parent="1" vertex="1">
          <mxGeometry x="242.00000000000009" y="570" width="30" height="19.999999999999886" as="geometry" />
        </mxCell>
        <mxCell id="186" value="under-&#xa;extraction" style="text;spacingTop=-5;fontSize=6;align=center;verticalAlign=middle;points=[]" parent="1" vertex="1">
          <mxGeometry x="289.54" y="530.4166666666665" width="30" height="19.999999999999886" as="geometry" />
        </mxCell>
        <mxCell id="187" value="over-&#xa;extraction" style="text;spacingTop=-5;fontSize=6;align=center;verticalAlign=middle;points=[]" parent="1" vertex="1">
          <mxGeometry x="324.11999999999983" y="530.0066666666667" width="30" height="19.999999999999886" as="geometry" />
        </mxCell>
        <mxCell id="194" value="Imbalanced flavors due &#xa;to incorrect ratio&#xa;" style="text;spacingTop=-5;fontSize=6;align=center;verticalAlign=middle;points=[]" parent="1" vertex="1">
          <mxGeometry x="398.00333333333333" y="514.5133333333332" width="30" height="19.999999999999886" as="geometry" />
        </mxCell>
        <mxCell id="202" value="Coffe-to-&#xa;water ratio" style="text;spacingTop=-5;fontSize=8;align=center;verticalAlign=middle;points=[]" parent="1" vertex="1">
          <mxGeometry x="419.1233333333333" y="542.4922222222219" width="30" height="19.999999999999886" as="geometry" />
        </mxCell>
        <mxCell id="204" value="Material" style="whiteSpace=wrap;strokeWidth=2" parent="1" vertex="1">
          <mxGeometry x="480.3733333333331" y="321.5277777777775" width="120" height="60" as="geometry" />
        </mxCell>
        <mxCell id="205" value="Environment" style="whiteSpace=wrap;strokeWidth=2" parent="1" vertex="1">
          <mxGeometry x="480.3733333333331" y="611.5277777777776" width="120" height="60" as="geometry" />
        </mxCell>
        <mxCell id="206" value="" style="edgeStyle=none;exitX=0.5;exitY=1;strokeWidth=3" parent="1" source="204" edge="1">
          <mxGeometry width="100" height="100" relative="1" as="geometry">
            <mxPoint x="540.3733333333331" y="401.5277777777775" as="sourcePoint" />
            <mxPoint x="600.3733333333331" y="491.5277777777776" as="targetPoint" />
          </mxGeometry>
        </mxCell>
        <mxCell id="207" value="" style="edgeStyle=none;exitX=0.5;exitY=0;strokeWidth=3" parent="1" edge="1">
          <mxGeometry width="100" height="100" relative="1" as="geometry">
            <mxPoint x="540.3733333333332" y="611.5277777777776" as="sourcePoint" />
            <mxPoint x="600.3733333333331" y="491.5277777777776" as="targetPoint" />
          </mxGeometry>
        </mxCell>
        <mxCell id="208" value="" style="edgeStyle=none;endArrow=none;strokeWidth=3;" parent="1" edge="1">
          <mxGeometry width="100" height="100" relative="1" as="geometry">
            <mxPoint x="490.3733333333332" y="401.5277777777775" as="sourcePoint" />
            <mxPoint x="550.3733333333331" y="401.5277777777775" as="targetPoint" />
          </mxGeometry>
        </mxCell>
        <mxCell id="209" value="" style="edgeStyle=none;endArrow=none;strokeWidth=3;" parent="1" edge="1">
          <mxGeometry width="100" height="100" relative="1" as="geometry">
            <mxPoint x="523.433333333333" y="459.8877777777775" as="sourcePoint" />
            <mxPoint x="583.4333333333329" y="459.8877777777775" as="targetPoint" />
          </mxGeometry>
        </mxCell>
        <mxCell id="212" value="" style="edgeStyle=none;endArrow=none;strokeWidth=3;" parent="1" edge="1">
          <mxGeometry width="100" height="100" relative="1" as="geometry">
            <mxPoint x="570.373333333333" y="437.5277777777775" as="sourcePoint" />
            <mxPoint x="630.3733333333331" y="437.5277777777775" as="targetPoint" />
          </mxGeometry>
        </mxCell>
        <mxCell id="214" value="" style="edgeStyle=none;endArrow=none;strokeWidth=2" parent="1" edge="1">
          <mxGeometry width="100" height="100" relative="1" as="geometry">
            <mxPoint x="530.3733333333331" y="511.5277777777776" as="sourcePoint" />
            <mxPoint x="590.3733333333332" y="511.5277777777776" as="targetPoint" />
          </mxGeometry>
        </mxCell>
        <mxCell id="215" value="" style="edgeStyle=none;endArrow=none;strokeWidth=3;" parent="1" edge="1">
          <mxGeometry width="100" height="100" relative="1" as="geometry">
            <mxPoint x="502.69333333333304" y="568.8977777777776" as="sourcePoint" />
            <mxPoint x="562.693333333333" y="568.8977777777776" as="targetPoint" />
          </mxGeometry>
        </mxCell>
        <mxCell id="218" value="" style="edgeStyle=none;endArrow=none;strokeWidth=2" parent="1" edge="1">
          <mxGeometry width="100" height="100" relative="1" as="geometry">
            <mxPoint x="570.373333333333" y="551.5277777777776" as="sourcePoint" />
            <mxPoint x="630.3733333333331" y="551.5277777777776" as="targetPoint" />
          </mxGeometry>
        </mxCell>
        <mxCell id="220" value="" style="edgeStyle=none;endArrow=none;strokeWidth=3;" parent="1" edge="1">
          <mxGeometry width="100" height="100" relative="1" as="geometry">
            <mxPoint x="520.373333333333" y="421.5277777777774" as="sourcePoint" />
            <mxPoint x="540.3733333333332" y="401.5277777777775" as="targetPoint" />
          </mxGeometry>
        </mxCell>
        <mxCell id="221" value="" style="edgeStyle=none;endArrow=none;strokeWidth=2;" parent="1" edge="1">
          <mxGeometry width="100" height="100" relative="1" as="geometry">
            <mxPoint x="490.3733333333332" y="421.5277777777774" as="sourcePoint" />
            <mxPoint x="510.37333333333305" y="401.5277777777775" as="targetPoint" />
          </mxGeometry>
        </mxCell>
        <mxCell id="224" value="" style="edgeStyle=none;endArrow=none;strokeWidth=3;" parent="1" edge="1">
          <mxGeometry width="100" height="100" relative="1" as="geometry">
            <mxPoint x="579.8910802469135" y="437.8973765432096" as="sourcePoint" />
            <mxPoint x="599.8910802469134" y="417.8973765432095" as="targetPoint" />
          </mxGeometry>
        </mxCell>
        <mxCell id="225" value="" style="edgeStyle=none;endArrow=none;" parent="1" edge="1">
          <mxGeometry width="100" height="100" relative="1" as="geometry">
            <mxPoint x="609.8910802469132" y="437.8973765432096" as="sourcePoint" />
            <mxPoint x="629.8910802469135" y="417.8973765432095" as="targetPoint" />
          </mxGeometry>
        </mxCell>
        <mxCell id="226" value="" style="edgeStyle=none;endArrow=none;strokeWidth=3;" parent="1" edge="1">
          <mxGeometry width="100" height="100" relative="1" as="geometry">
            <mxPoint x="540.3710802469133" y="479.9973765432094" as="sourcePoint" />
            <mxPoint x="560.3710802469132" y="459.9973765432096" as="targetPoint" />
          </mxGeometry>
        </mxCell>
        <mxCell id="231" value="" style="edgeStyle=none;endArrow=none;" parent="1" edge="1">
          <mxGeometry width="100" height="100" relative="1" as="geometry">
            <mxPoint x="584.9533333333331" y="551.5277777777776" as="sourcePoint" />
            <mxPoint x="604.9533333333331" y="531.5277777777776" as="targetPoint" />
          </mxGeometry>
        </mxCell>
        <mxCell id="233" value="" style="edgeStyle=none;endArrow=none;exitX=0.726;exitY=0.021;exitDx=0;exitDy=0;exitPerimeter=0;" parent="1" source="f8ZGEddBivC9AHqz260Z-590" edge="1">
          <mxGeometry width="100" height="100" relative="1" as="geometry">
            <mxPoint x="533.4333333333333" y="589.9977777777776" as="sourcePoint" />
            <mxPoint x="553.4333333333332" y="569" as="targetPoint" />
          </mxGeometry>
        </mxCell>
        <mxCell id="234" value="" style="edgeStyle=none;endArrow=none;strokeWidth=3;" parent="1" source="f8ZGEddBivC9AHqz260Z-588" edge="1">
          <mxGeometry width="100" height="100" relative="1" as="geometry">
            <mxPoint x="502.69333333333304" y="588.8977777777776" as="sourcePoint" />
            <mxPoint x="522.6933333333332" y="568.8977777777776" as="targetPoint" />
          </mxGeometry>
        </mxCell>
        <mxCell id="235" value="" style="edgeStyle=none;endArrow=none;" parent="1" edge="1">
          <mxGeometry width="100" height="100" relative="1" as="geometry">
            <mxPoint x="560.3733333333331" y="531.5277777777776" as="sourcePoint" />
            <mxPoint x="580.3733333333331" y="511.5277777777776" as="targetPoint" />
          </mxGeometry>
        </mxCell>
        <mxCell id="236" value="" style="edgeStyle=none;endArrow=none;" parent="1" edge="1">
          <mxGeometry width="100" height="100" relative="1" as="geometry">
            <mxPoint x="530.3733333333331" y="531.5277777777776" as="sourcePoint" />
            <mxPoint x="550.3733333333331" y="511.5277777777776" as="targetPoint" />
          </mxGeometry>
        </mxCell>
        <mxCell id="237" value="Coffee&#xa;beans" style="text;spacingTop=-5;fontSize=8;align=center;verticalAlign=middle;points=[]" parent="1" vertex="1">
          <mxGeometry x="460.3733333333331" y="391.5277777777776" width="30" height="19.999999999999886" as="geometry" />
        </mxCell>
        <mxCell id="238" value="Cleaning&#xa;supplies" style="text;spacingTop=-5;fontSize=8;align=center;verticalAlign=middle;points=[]" parent="1" vertex="1">
          <mxGeometry x="485.8633333333331" y="450.4177777777775" width="30" height="21.999999999999886" as="geometry" />
        </mxCell>
        <mxCell id="240" value="Storage &#xa;conditions" style="text;spacingTop=-5;fontSize=8;align=center;verticalAlign=middle;points=[]" parent="1" vertex="1">
          <mxGeometry x="493.4333333333331" y="502.49777777777786" width="30" height="19.999999999999886" as="geometry" />
        </mxCell>
        <mxCell id="241" value="Water&#xa;quality" style="text;spacingTop=-5;fontSize=8;align=center;verticalAlign=middle;points=[]" parent="1" vertex="1">
          <mxGeometry x="472.20333333333303" y="559.8577777777774" width="30" height="19.999999999999886" as="geometry" />
        </mxCell>
        <mxCell id="243" value="low quality" style="text;spacingTop=-5;fontSize=6;align=center;verticalAlign=middle;points=[]" parent="1" vertex="1">
          <mxGeometry x="475.3733333333332" y="421.5277777777775" width="30" height="19.999999999999886" as="geometry" />
        </mxCell>
        <mxCell id="244" value="not fresh" style="text;spacingTop=-5;fontSize=6;align=center;verticalAlign=middle;points=[]" parent="1" vertex="1">
          <mxGeometry x="510.37333333333305" y="421.5277777777775" width="30" height="19.999999999999886" as="geometry" />
        </mxCell>
        <mxCell id="247" value="dark" style="text;spacingTop=-5;fontSize=6;align=center;verticalAlign=middle;points=[]" parent="1" vertex="1">
          <mxGeometry x="507.93333333333305" y="530.0044444444441" width="30" height="19.999999999999886" as="geometry" />
        </mxCell>
        <mxCell id="248" value="dry" style="text;spacingTop=-5;fontSize=6;align=center;verticalAlign=middle;points=[]" parent="1" vertex="1">
          <mxGeometry x="537.253333333333" y="530.0044444444442" width="30" height="19.999999999999886" as="geometry" />
        </mxCell>
        <mxCell id="251" value="Using unfiltered &#xa;or distilled water" style="text;spacingTop=-5;fontSize=6;align=center;verticalAlign=middle;points=[]" parent="1" vertex="1">
          <mxGeometry x="579.361111111111" y="396.5266666666663" width="30" height="19.999999999999886" as="geometry" />
        </mxCell>
        <mxCell id="252" value="Incorrect water&#xa; temperature" style="text;spacingTop=-5;fontSize=6;align=center;verticalAlign=middle;points=[]" parent="1" vertex="1">
          <mxGeometry x="631.2411111111107" y="399.9966666666664" width="30" height="19.999999999999886" as="geometry" />
        </mxCell>
        <mxCell id="255" value="kitchen" style="text;spacingTop=-5;fontSize=6;align=center;verticalAlign=middle;points=[]" parent="1" vertex="1">
          <mxGeometry x="601.8966666666665" y="519.8611111111109" width="30" height="19.999999999999886" as="geometry" />
        </mxCell>
        <mxCell id="260" value="Water" style="text;spacingTop=-5;fontSize=8;align=center;verticalAlign=middle;points=[]" parent="1" vertex="1">
          <mxGeometry x="629.9566666666665" y="429.02999999999963" width="30" height="19.999999999999886" as="geometry" />
        </mxCell>
        <mxCell id="263" value="Machine &#xa;Location" style="text;spacingTop=-5;fontSize=8;align=center;verticalAlign=middle;points=[]" parent="1" vertex="1">
          <mxGeometry x="636.8966666666663" y="542.4999999999995" width="30" height="19.999999999999886" as="geometry" />
        </mxCell>
        <mxCell id="l8Qek_9s6xdW2GuOrR4t-264" value="Sour coffee" style="whiteSpace=wrap;strokeWidth=3" parent="1" vertex="1">
          <mxGeometry x="684.54" y="120" width="120" height="60" as="geometry" />
        </mxCell>
        <mxCell id="l8Qek_9s6xdW2GuOrR4t-265" value="" style="edgeStyle=none;strokeWidth=4;entryX=0;entryY=0.5;entryDx=0;entryDy=0;" parent="1" source="l8Qek_9s6xdW2GuOrR4t-266" target="l8Qek_9s6xdW2GuOrR4t-268" edge="1">
          <mxGeometry width="100" height="100" relative="1" as="geometry">
            <mxPoint x="124.54000000000002" y="150" as="sourcePoint" />
            <mxPoint x="244.54" y="100" as="targetPoint" />
          </mxGeometry>
        </mxCell>
        <mxCell id="l8Qek_9s6xdW2GuOrR4t-267" value="" style="edgeStyle=none;strokeWidth=4" parent="1" target="l8Qek_9s6xdW2GuOrR4t-266" edge="1">
          <mxGeometry width="100" height="100" relative="1" as="geometry">
            <mxPoint x="124.54000000000002" y="150" as="sourcePoint" />
            <mxPoint x="685" y="150" as="targetPoint" />
          </mxGeometry>
        </mxCell>
        <mxCell id="l8Qek_9s6xdW2GuOrR4t-266" value="1. Buy beans" style="whiteSpace=wrap;strokeWidth=2" parent="1" vertex="1">
          <mxGeometry x="75.57833333333323" y="120" width="120" height="60" as="geometry" />
        </mxCell>
        <mxCell id="l8Qek_9s6xdW2GuOrR4t-268" value="2. Clean machine" style="whiteSpace=wrap;strokeWidth=2" parent="1" vertex="1">
          <mxGeometry x="227.59833333333324" y="120" width="120" height="60" as="geometry" />
        </mxCell>
        <mxCell id="l8Qek_9s6xdW2GuOrR4t-269" value="3. Refill Water" style="whiteSpace=wrap;strokeWidth=2" parent="1" vertex="1">
          <mxGeometry x="380.3683333333332" y="120" width="120" height="60" as="geometry" />
        </mxCell>
        <mxCell id="l8Qek_9s6xdW2GuOrR4t-270" value="4. Make coffee" style="whiteSpace=wrap;strokeWidth=2" parent="1" vertex="1">
          <mxGeometry x="531.7583333333332" y="120" width="120" height="60" as="geometry" />
        </mxCell>
        <mxCell id="l8Qek_9s6xdW2GuOrR4t-271" value="" style="edgeStyle=none;strokeWidth=4;" parent="1" source="l8Qek_9s6xdW2GuOrR4t-268" target="l8Qek_9s6xdW2GuOrR4t-269" edge="1">
          <mxGeometry width="100" height="100" relative="1" as="geometry">
            <mxPoint x="370" y="190" as="sourcePoint" />
            <mxPoint x="370" y="220" as="targetPoint" />
          </mxGeometry>
        </mxCell>
        <mxCell id="l8Qek_9s6xdW2GuOrR4t-272" value="" style="edgeStyle=none;strokeWidth=4;entryX=0;entryY=0.5;entryDx=0;entryDy=0;exitX=1;exitY=0.5;exitDx=0;exitDy=0;" parent="1" source="l8Qek_9s6xdW2GuOrR4t-269" target="l8Qek_9s6xdW2GuOrR4t-270" edge="1">
          <mxGeometry width="100" height="100" relative="1" as="geometry">
            <mxPoint x="358" y="160" as="sourcePoint" />
            <mxPoint x="390" y="160" as="targetPoint" />
          </mxGeometry>
        </mxCell>
        <mxCell id="l8Qek_9s6xdW2GuOrR4t-273" value="" style="edgeStyle=none;strokeWidth=4;exitX=1;exitY=0.5;exitDx=0;exitDy=0;" parent="1" source="l8Qek_9s6xdW2GuOrR4t-270" target="l8Qek_9s6xdW2GuOrR4t-264" edge="1">
          <mxGeometry width="100" height="100" relative="1" as="geometry">
            <mxPoint x="510" y="160" as="sourcePoint" />
            <mxPoint x="542" y="160" as="targetPoint" />
          </mxGeometry>
        </mxCell>
        <mxCell id="l8Qek_9s6xdW2GuOrR4t-274" value="" style="edgeStyle=none;exitX=0.5;exitY=1;strokeWidth=3" parent="1" edge="1">
          <mxGeometry width="100" height="100" relative="1" as="geometry">
            <mxPoint x="102.98999999999998" y="10" as="sourcePoint" />
            <mxPoint x="162.53" y="120" as="targetPoint" />
          </mxGeometry>
        </mxCell>
        <mxCell id="l8Qek_9s6xdW2GuOrR4t-275" value="" style="edgeStyle=none;exitX=0.5;exitY=0;strokeWidth=3" parent="1" edge="1">
          <mxGeometry width="100" height="100" relative="1" as="geometry">
            <mxPoint x="100.58000000000013" y="300" as="sourcePoint" />
            <mxPoint x="160.58" y="180" as="targetPoint" />
          </mxGeometry>
        </mxCell>
        <mxCell id="l8Qek_9s6xdW2GuOrR4t-277" value="" style="edgeStyle=none;exitX=0.5;exitY=0;strokeWidth=3" parent="1" edge="1">
          <mxGeometry width="100" height="100" relative="1" as="geometry">
            <mxPoint x="256.6200000000001" y="300" as="sourcePoint" />
            <mxPoint x="316.62" y="180" as="targetPoint" />
          </mxGeometry>
        </mxCell>
        <mxCell id="l8Qek_9s6xdW2GuOrR4t-278" value="" style="edgeStyle=none;exitX=0.5;exitY=1;strokeWidth=3" parent="1" edge="1">
          <mxGeometry width="100" height="100" relative="1" as="geometry">
            <mxPoint x="411.79999999999995" y="10" as="sourcePoint" />
            <mxPoint x="471.34000000000003" y="120" as="targetPoint" />
          </mxGeometry>
        </mxCell>
        <mxCell id="l8Qek_9s6xdW2GuOrR4t-279" value="" style="edgeStyle=none;exitX=0.5;exitY=0;strokeWidth=3" parent="1" edge="1">
          <mxGeometry width="100" height="100" relative="1" as="geometry">
            <mxPoint x="409.3900000000001" y="300" as="sourcePoint" />
            <mxPoint x="469.39" y="180" as="targetPoint" />
          </mxGeometry>
        </mxCell>
        <mxCell id="l8Qek_9s6xdW2GuOrR4t-280" value="" style="edgeStyle=none;exitX=0.5;exitY=1;strokeWidth=3" parent="1" edge="1">
          <mxGeometry width="100" height="100" relative="1" as="geometry">
            <mxPoint x="563.1899999999999" y="10" as="sourcePoint" />
            <mxPoint x="622.73" y="120" as="targetPoint" />
          </mxGeometry>
        </mxCell>
        <mxCell id="l8Qek_9s6xdW2GuOrR4t-281" value="" style="edgeStyle=none;exitX=0.5;exitY=0;strokeWidth=3" parent="1" edge="1">
          <mxGeometry width="100" height="100" relative="1" as="geometry">
            <mxPoint x="560.7800000000001" y="300" as="sourcePoint" />
            <mxPoint x="620.78" y="180" as="targetPoint" />
          </mxGeometry>
        </mxCell>
        <mxCell id="l8Qek_9s6xdW2GuOrR4t-282" value="Coffee beans" style="whiteSpace=wrap;strokeWidth=2" parent="1" vertex="1">
          <mxGeometry x="41.22833333333324" y="700" width="120" height="60" as="geometry" />
        </mxCell>
        <mxCell id="l8Qek_9s6xdW2GuOrR4t-283" value="Water" style="whiteSpace=wrap;strokeWidth=2" parent="1" vertex="1">
          <mxGeometry x="41.22833333333324" y="990" width="120" height="60" as="geometry" />
        </mxCell>
        <mxCell id="l8Qek_9s6xdW2GuOrR4t-284" value="Coffee machine outputs coffee with an unexpected sour after-taste" style="whiteSpace=wrap;strokeWidth=3" parent="1" vertex="1">
          <mxGeometry x="684.77" y="840" width="120" height="60" as="geometry" />
        </mxCell>
        <mxCell id="l8Qek_9s6xdW2GuOrR4t-285" value="" style="edgeStyle=none;strokeWidth=4" parent="1" target="l8Qek_9s6xdW2GuOrR4t-284" edge="1">
          <mxGeometry width="100" height="100" relative="1" as="geometry">
            <mxPoint x="124.77" y="870" as="sourcePoint" />
            <mxPoint x="244.76999999999995" y="820" as="targetPoint" />
          </mxGeometry>
        </mxCell>
        <mxCell id="l8Qek_9s6xdW2GuOrR4t-286" value="" style="edgeStyle=none;exitX=0.5;exitY=1;strokeWidth=3" parent="1" source="l8Qek_9s6xdW2GuOrR4t-282" edge="1">
          <mxGeometry width="100" height="100" relative="1" as="geometry">
            <mxPoint x="101.22833333333323" y="780" as="sourcePoint" />
            <mxPoint x="161.2283333333332" y="870" as="targetPoint" />
          </mxGeometry>
        </mxCell>
        <mxCell id="l8Qek_9s6xdW2GuOrR4t-287" value="" style="edgeStyle=none;exitX=0.5;exitY=0;strokeWidth=3" parent="1" edge="1">
          <mxGeometry width="100" height="100" relative="1" as="geometry">
            <mxPoint x="101.22833333333323" y="990" as="sourcePoint" />
            <mxPoint x="161.2283333333332" y="870" as="targetPoint" />
          </mxGeometry>
        </mxCell>
        <mxCell id="l8Qek_9s6xdW2GuOrR4t-289" value="" style="edgeStyle=none;endArrow=none;strokeWidth=2" parent="1" edge="1">
          <mxGeometry width="100" height="100" relative="1" as="geometry">
            <mxPoint x="71.22833333333323" y="816" as="sourcePoint" />
            <mxPoint x="131.2283333333332" y="816" as="targetPoint" />
          </mxGeometry>
        </mxCell>
        <mxCell id="l8Qek_9s6xdW2GuOrR4t-291" value="" style="edgeStyle=none;endArrow=none;strokeWidth=2" parent="1" edge="1">
          <mxGeometry width="100" height="100" relative="1" as="geometry">
            <mxPoint x="111.22833333333323" y="780" as="sourcePoint" />
            <mxPoint x="171.2283333333332" y="780" as="targetPoint" />
          </mxGeometry>
        </mxCell>
        <mxCell id="l8Qek_9s6xdW2GuOrR4t-294" value="" style="edgeStyle=none;endArrow=none;strokeWidth=2" parent="1" edge="1">
          <mxGeometry width="100" height="100" relative="1" as="geometry">
            <mxPoint x="91.22833333333323" y="890" as="sourcePoint" />
            <mxPoint x="151.2283333333332" y="890" as="targetPoint" />
          </mxGeometry>
        </mxCell>
        <mxCell id="l8Qek_9s6xdW2GuOrR4t-295" value="" style="edgeStyle=none;endArrow=none;strokeWidth=2" parent="1" edge="1">
          <mxGeometry width="100" height="100" relative="1" as="geometry">
            <mxPoint x="71.22833333333323" y="930" as="sourcePoint" />
            <mxPoint x="131.2283333333332" y="930" as="targetPoint" />
          </mxGeometry>
        </mxCell>
        <mxCell id="l8Qek_9s6xdW2GuOrR4t-306" value="" style="edgeStyle=none;endArrow=oval;endFill=1;" parent="1" edge="1">
          <mxGeometry width="100" height="100" relative="1" as="geometry">
            <mxPoint x="100.74608024691348" y="836" as="sourcePoint" />
            <mxPoint x="120.74608024691345" y="819" as="targetPoint" />
          </mxGeometry>
        </mxCell>
        <mxCell id="l8Qek_9s6xdW2GuOrR4t-307" value="" style="edgeStyle=none;endArrow=none;" parent="1" edge="1">
          <mxGeometry width="100" height="100" relative="1" as="geometry">
            <mxPoint x="70.74608024691346" y="836.3695987654319" as="sourcePoint" />
            <mxPoint x="90.74608024691348" y="816.3695987654319" as="targetPoint" />
          </mxGeometry>
        </mxCell>
        <mxCell id="l8Qek_9s6xdW2GuOrR4t-312" value="" style="edgeStyle=none;endArrow=none;" parent="1" edge="1">
          <mxGeometry width="100" height="100" relative="1" as="geometry">
            <mxPoint x="101.22833333333323" y="950" as="sourcePoint" />
            <mxPoint x="121.2283333333332" y="930" as="targetPoint" />
          </mxGeometry>
        </mxCell>
        <mxCell id="l8Qek_9s6xdW2GuOrR4t-313" value="" style="edgeStyle=none;endArrow=none;" parent="1" edge="1">
          <mxGeometry width="100" height="100" relative="1" as="geometry">
            <mxPoint x="101.22833333333323" y="950" as="sourcePoint" />
            <mxPoint x="121.2283333333332" y="930" as="targetPoint" />
          </mxGeometry>
        </mxCell>
        <mxCell id="l8Qek_9s6xdW2GuOrR4t-314" value="" style="edgeStyle=none;endArrow=none;" parent="1" edge="1">
          <mxGeometry width="100" height="100" relative="1" as="geometry">
            <mxPoint x="71.22833333333323" y="950" as="sourcePoint" />
            <mxPoint x="91.22833333333323" y="930" as="targetPoint" />
          </mxGeometry>
        </mxCell>
        <mxCell id="l8Qek_9s6xdW2GuOrR4t-315" value="" style="edgeStyle=none;endArrow=none;" parent="1" edge="1">
          <mxGeometry width="100" height="100" relative="1" as="geometry">
            <mxPoint x="121.2283333333332" y="910" as="sourcePoint" />
            <mxPoint x="141.2283333333332" y="890" as="targetPoint" />
          </mxGeometry>
        </mxCell>
        <mxCell id="l8Qek_9s6xdW2GuOrR4t-316" value="" style="edgeStyle=none;endArrow=oval;startArrow=none;startFill=0;endFill=0;" parent="1" edge="1">
          <mxGeometry width="100" height="100" relative="1" as="geometry">
            <mxPoint x="91.22833333333323" y="910" as="sourcePoint" />
            <mxPoint x="111.22833333333323" y="894" as="targetPoint" />
          </mxGeometry>
        </mxCell>
        <mxCell id="l8Qek_9s6xdW2GuOrR4t-318" value="Quality" style="text;spacingTop=-5;fontSize=8;align=center;verticalAlign=middle;points=[]" parent="1" vertex="1">
          <mxGeometry x="41.22833333333321" y="810" width="30" height="19.999999999999886" as="geometry" />
        </mxCell>
        <mxCell id="l8Qek_9s6xdW2GuOrR4t-320" value="Water&#xa;quality" style="text;spacingTop=-5;fontSize=8;align=center;verticalAlign=middle;points=[]" parent="1" vertex="1">
          <mxGeometry x="61.22833333333321" y="880.0000000000002" width="30" height="19.999999999999886" as="geometry" />
        </mxCell>
        <mxCell id="l8Qek_9s6xdW2GuOrR4t-321" value="Temperature" style="text;spacingTop=-5;fontSize=8;align=center;verticalAlign=middle;points=[]" parent="1" vertex="1">
          <mxGeometry x="31.228333333333165" y="922" width="30" height="19.999999999999886" as="geometry" />
        </mxCell>
        <mxCell id="l8Qek_9s6xdW2GuOrR4t-324" value="not fresh" style="text;spacingTop=-5;fontSize=6;align=center;verticalAlign=middle;points=[];fontStyle=4" parent="1" vertex="1">
          <mxGeometry x="91.22833333333317" y="836.53" width="30" height="19.999999999999886" as="geometry" />
        </mxCell>
        <mxCell id="l8Qek_9s6xdW2GuOrR4t-327" value="tap water" style="text;spacingTop=-5;fontSize=6;align=center;verticalAlign=middle;points=[];fontStyle=0" parent="1" vertex="1">
          <mxGeometry x="66.22833333333323" y="910.4166666666665" width="30" height="19.999999999999886" as="geometry" />
        </mxCell>
        <mxCell id="l8Qek_9s6xdW2GuOrR4t-328" value="unfiltered" style="text;spacingTop=-5;fontSize=6;align=center;verticalAlign=middle;points=[];fontStyle=0" parent="1" vertex="1">
          <mxGeometry x="101.22833333333305" y="910.4166666666667" width="30" height="19.999999999999886" as="geometry" />
        </mxCell>
        <mxCell id="l8Qek_9s6xdW2GuOrR4t-329" value=" &lt; 90°C " style="text;spacingTop=-5;fontSize=6;align=center;verticalAlign=middle;points=[];labelBorderColor=none;" parent="1" vertex="1">
          <mxGeometry x="49.053888888888785" y="947.5022222222221" width="30" height="19.999999999999886" as="geometry" />
        </mxCell>
        <mxCell id="l8Qek_9s6xdW2GuOrR4t-330" value=" &gt; 96°C " style="text;spacingTop=-5;fontSize=6;align=center;verticalAlign=middle;points=[];labelBorderColor=none;" parent="1" vertex="1">
          <mxGeometry x="79.05388888888862" y="947.5022222222221" width="30" height="19.999999999999886" as="geometry" />
        </mxCell>
        <mxCell id="l8Qek_9s6xdW2GuOrR4t-339" value="Storage" style="text;spacingTop=-5;fontSize=8;align=center;verticalAlign=middle;points=[]" parent="1" vertex="1">
          <mxGeometry x="170.81166666666653" y="770.9722222222223" width="30" height="19.999999999999886" as="geometry" />
        </mxCell>
        <mxCell id="l8Qek_9s6xdW2GuOrR4t-345" value="Machine &#xa;maintenance" style="whiteSpace=wrap;strokeWidth=2" parent="1" vertex="1">
          <mxGeometry x="264.77000000000004" y="700" width="120" height="60" as="geometry" />
        </mxCell>
        <mxCell id="l8Qek_9s6xdW2GuOrR4t-346" value="Environment" style="whiteSpace=wrap;strokeWidth=2" parent="1" vertex="1">
          <mxGeometry x="264.77000000000004" y="990" width="120" height="60" as="geometry" />
        </mxCell>
        <mxCell id="l8Qek_9s6xdW2GuOrR4t-347" value="" style="edgeStyle=none;exitX=0.5;exitY=1;strokeWidth=3" parent="1" source="l8Qek_9s6xdW2GuOrR4t-345" edge="1">
          <mxGeometry width="100" height="100" relative="1" as="geometry">
            <mxPoint x="324.77000000000004" y="779.9999999999999" as="sourcePoint" />
            <mxPoint x="384.77000000000004" y="870" as="targetPoint" />
          </mxGeometry>
        </mxCell>
        <mxCell id="l8Qek_9s6xdW2GuOrR4t-348" value="" style="edgeStyle=none;exitX=0.5;exitY=0;strokeWidth=3" parent="1" edge="1">
          <mxGeometry width="100" height="100" relative="1" as="geometry">
            <mxPoint x="324.77000000000015" y="990" as="sourcePoint" />
            <mxPoint x="384.77000000000004" y="870" as="targetPoint" />
          </mxGeometry>
        </mxCell>
        <mxCell id="l8Qek_9s6xdW2GuOrR4t-350" value="" style="edgeStyle=none;endArrow=none;strokeWidth=2" parent="1" edge="1">
          <mxGeometry width="100" height="100" relative="1" as="geometry">
            <mxPoint x="294.77000000000004" y="816" as="sourcePoint" />
            <mxPoint x="354.7699999999999" y="816" as="targetPoint" />
          </mxGeometry>
        </mxCell>
        <mxCell id="l8Qek_9s6xdW2GuOrR4t-353" value="" style="edgeStyle=none;endArrow=none;strokeWidth=2" parent="1" edge="1">
          <mxGeometry width="100" height="100" relative="1" as="geometry">
            <mxPoint x="354.7699999999999" y="816" as="sourcePoint" />
            <mxPoint x="414.77000000000004" y="816" as="targetPoint" />
          </mxGeometry>
        </mxCell>
        <mxCell id="l8Qek_9s6xdW2GuOrR4t-356" value="" style="edgeStyle=none;endArrow=none;strokeWidth=2" parent="1" edge="1">
          <mxGeometry width="100" height="100" relative="1" as="geometry">
            <mxPoint x="294.77000000000004" y="930" as="sourcePoint" />
            <mxPoint x="354.7699999999999" y="930" as="targetPoint" />
          </mxGeometry>
        </mxCell>
        <mxCell id="l8Qek_9s6xdW2GuOrR4t-360" value="" style="edgeStyle=none;endArrow=none;strokeWidth=2" parent="1" edge="1">
          <mxGeometry width="100" height="100" relative="1" as="geometry">
            <mxPoint x="334.77000000000004" y="970" as="sourcePoint" />
            <mxPoint x="394.77000000000004" y="970" as="targetPoint" />
          </mxGeometry>
        </mxCell>
        <mxCell id="l8Qek_9s6xdW2GuOrR4t-365" value="" style="edgeStyle=none;endArrow=none;" parent="1" edge="1">
          <mxGeometry width="100" height="100" relative="1" as="geometry">
            <mxPoint x="364.2877469135804" y="816.3695987654319" as="sourcePoint" />
            <mxPoint x="384.2877469135803" y="796.3695987654319" as="targetPoint" />
          </mxGeometry>
        </mxCell>
        <mxCell id="l8Qek_9s6xdW2GuOrR4t-366" value="" style="edgeStyle=none;endArrow=none;" parent="1" edge="1">
          <mxGeometry width="100" height="100" relative="1" as="geometry">
            <mxPoint x="394.2877469135802" y="816.3695987654319" as="sourcePoint" />
            <mxPoint x="414.2877469135804" y="796.3695987654319" as="targetPoint" />
          </mxGeometry>
        </mxCell>
        <mxCell id="l8Qek_9s6xdW2GuOrR4t-367" value="" style="edgeStyle=none;endArrow=none;" parent="1" edge="1">
          <mxGeometry width="100" height="100" relative="1" as="geometry">
            <mxPoint x="324.2877469135803" y="836.3695987654319" as="sourcePoint" />
            <mxPoint x="344.2877469135802" y="816.3695987654319" as="targetPoint" />
          </mxGeometry>
        </mxCell>
        <mxCell id="l8Qek_9s6xdW2GuOrR4t-368" value="" style="edgeStyle=none;endArrow=oval;startArrow=none;startFill=0;endFill=1;" parent="1" edge="1">
          <mxGeometry width="100" height="100" relative="1" as="geometry">
            <mxPoint x="280" y="850" as="sourcePoint" />
            <mxPoint x="314.2877469135804" y="820" as="targetPoint" />
          </mxGeometry>
        </mxCell>
        <mxCell id="l8Qek_9s6xdW2GuOrR4t-369" value="" style="edgeStyle=none;endArrow=none;startArrow=oval;startFill=0;" parent="1" edge="1">
          <mxGeometry width="100" height="100" relative="1" as="geometry">
            <mxPoint x="374.77000000000015" y="966" as="sourcePoint" />
            <mxPoint x="394.77000000000004" y="950" as="targetPoint" />
          </mxGeometry>
        </mxCell>
        <mxCell id="l8Qek_9s6xdW2GuOrR4t-374" value="" style="edgeStyle=none;endArrow=none;" parent="1" edge="1">
          <mxGeometry width="100" height="100" relative="1" as="geometry">
            <mxPoint x="300" y="970" as="sourcePoint" />
            <mxPoint x="344.77000000000004" y="930" as="targetPoint" />
          </mxGeometry>
        </mxCell>
        <mxCell id="l8Qek_9s6xdW2GuOrR4t-379" value="Cleaning" style="text;spacingTop=-5;fontSize=8;align=center;verticalAlign=middle;points=[]" parent="1" vertex="1">
          <mxGeometry x="259.77000000000004" y="810" width="30" height="19.999999999999886" as="geometry" />
        </mxCell>
        <mxCell id="l8Qek_9s6xdW2GuOrR4t-382" value="Storage" style="text;spacingTop=-5;fontSize=8;align=center;verticalAlign=middle;points=[]" parent="1" vertex="1">
          <mxGeometry x="261.53" y="921.9999999999998" width="30" height="19.999999999999886" as="geometry" />
        </mxCell>
        <mxCell id="l8Qek_9s6xdW2GuOrR4t-386" value="Inadequate&#xa;Material" style="text;spacingTop=-5;fontSize=6;align=center;verticalAlign=middle;points=[]" parent="1" vertex="1">
          <mxGeometry x="250.57555555555558" y="851.5277777777776" width="30" height="19.999999999999886" as="geometry" />
        </mxCell>
        <mxCell id="l8Qek_9s6xdW2GuOrR4t-387" value="Ineffective cleaning&#xa;agents" style="text;spacingTop=-5;fontSize=6;align=center;verticalAlign=middle;points=[]" parent="1" vertex="1">
          <mxGeometry x="307.82555555555547" y="836.5277777777778" width="30" height="19.999999999999886" as="geometry" />
        </mxCell>
        <mxCell id="l8Qek_9s6xdW2GuOrR4t-392" value="Faulty &#xa;sensors" style="text;spacingTop=-5;fontSize=6;align=center;verticalAlign=middle;points=[]" parent="1" vertex="1">
          <mxGeometry x="364.3577777777778" y="781.5288888888887" width="30" height="19.999999999999886" as="geometry" />
        </mxCell>
        <mxCell id="l8Qek_9s6xdW2GuOrR4t-393" value="Mineral deposits&#xa; blocking water lines" style="text;spacingTop=-5;fontSize=6;align=center;verticalAlign=middle;points=[]" parent="1" vertex="1">
          <mxGeometry x="405.60777777777764" y="781.5288888888888" width="30" height="19.999999999999886" as="geometry" />
        </mxCell>
        <mxCell id="l8Qek_9s6xdW2GuOrR4t-399" value="kitchen" style="text;spacingTop=-5;fontSize=6;align=center;verticalAlign=middle;points=[]" parent="1" vertex="1">
          <mxGeometry x="389.3533333333332" y="935.4166666666667" width="30" height="19.999999999999886" as="geometry" />
        </mxCell>
        <mxCell id="l8Qek_9s6xdW2GuOrR4t-401" value="Components" style="text;spacingTop=-5;fontSize=8;align=center;verticalAlign=middle;points=[]" parent="1" vertex="1">
          <mxGeometry x="428.00333333333333" y="810.0022222222221" width="30" height="19.999999999999886" as="geometry" />
        </mxCell>
        <mxCell id="l8Qek_9s6xdW2GuOrR4t-405" value="Machine&#xa;Location" style="text;spacingTop=-5;fontSize=8;align=center;verticalAlign=middle;points=[]" parent="1" vertex="1">
          <mxGeometry x="401.1333333333334" y="962.5022222222224" width="30" height="19.999999999999886" as="geometry" />
        </mxCell>
        <mxCell id="l8Qek_9s6xdW2GuOrR4t-406" value="Brewing process" style="whiteSpace=wrap;strokeWidth=2" parent="1" vertex="1">
          <mxGeometry x="480.6033333333331" y="701.5277777777775" width="120" height="60" as="geometry" />
        </mxCell>
        <mxCell id="l8Qek_9s6xdW2GuOrR4t-407" value="Person" style="whiteSpace=wrap;strokeWidth=2" parent="1" vertex="1">
          <mxGeometry x="480.6033333333331" y="991.5277777777776" width="120" height="60" as="geometry" />
        </mxCell>
        <mxCell id="l8Qek_9s6xdW2GuOrR4t-408" value="" style="edgeStyle=none;exitX=0.5;exitY=1;strokeWidth=3" parent="1" source="l8Qek_9s6xdW2GuOrR4t-406" edge="1">
          <mxGeometry width="100" height="100" relative="1" as="geometry">
            <mxPoint x="540.6033333333331" y="781.5277777777775" as="sourcePoint" />
            <mxPoint x="600.6033333333331" y="871.5277777777776" as="targetPoint" />
          </mxGeometry>
        </mxCell>
        <mxCell id="l8Qek_9s6xdW2GuOrR4t-409" value="" style="edgeStyle=none;exitX=0.5;exitY=0;strokeWidth=3" parent="1" edge="1">
          <mxGeometry width="100" height="100" relative="1" as="geometry">
            <mxPoint x="540.6033333333332" y="991.5277777777776" as="sourcePoint" />
            <mxPoint x="600.6033333333331" y="871.5277777777776" as="targetPoint" />
          </mxGeometry>
        </mxCell>
        <mxCell id="l8Qek_9s6xdW2GuOrR4t-410" value="" style="edgeStyle=none;endArrow=none;strokeWidth=2" parent="1" edge="1">
          <mxGeometry width="100" height="100" relative="1" as="geometry">
            <mxPoint x="490.60333333333324" y="781.5277777777775" as="sourcePoint" />
            <mxPoint x="550.6033333333331" y="781.5277777777775" as="targetPoint" />
          </mxGeometry>
        </mxCell>
        <mxCell id="l8Qek_9s6xdW2GuOrR4t-412" value="" style="edgeStyle=none;endArrow=none;strokeWidth=2;rounded=1;curved=0;strokeColor=default;endFill=0;startFill=0;" parent="1" edge="1">
          <mxGeometry width="100" height="100" relative="1" as="geometry">
            <mxPoint x="530.6033333333331" y="851.5277777777776" as="sourcePoint" />
            <mxPoint x="590.6033333333332" y="851.5277777777776" as="targetPoint" />
          </mxGeometry>
        </mxCell>
        <mxCell id="l8Qek_9s6xdW2GuOrR4t-414" value="" style="edgeStyle=none;endArrow=none;strokeWidth=2" parent="1" edge="1">
          <mxGeometry width="100" height="100" relative="1" as="geometry">
            <mxPoint x="570.603333333333" y="817.5277777777774" as="sourcePoint" />
            <mxPoint x="630.6033333333331" y="817.5277777777774" as="targetPoint" />
          </mxGeometry>
        </mxCell>
        <mxCell id="l8Qek_9s6xdW2GuOrR4t-416" value="" style="edgeStyle=none;endArrow=none;strokeWidth=2" parent="1" edge="1">
          <mxGeometry width="100" height="100" relative="1" as="geometry">
            <mxPoint x="530.6033333333331" y="891.5277777777776" as="sourcePoint" />
            <mxPoint x="590.6033333333332" y="891.5277777777776" as="targetPoint" />
          </mxGeometry>
        </mxCell>
        <mxCell id="l8Qek_9s6xdW2GuOrR4t-417" value="" style="edgeStyle=none;endArrow=none;strokeWidth=2" parent="1" edge="1">
          <mxGeometry width="100" height="100" relative="1" as="geometry">
            <mxPoint x="510.6033333333331" y="931.5277777777776" as="sourcePoint" />
            <mxPoint x="570.603333333333" y="931.5277777777776" as="targetPoint" />
          </mxGeometry>
        </mxCell>
        <mxCell id="l8Qek_9s6xdW2GuOrR4t-420" value="" style="edgeStyle=none;endArrow=none;strokeWidth=2" parent="1" edge="1">
          <mxGeometry width="100" height="100" relative="1" as="geometry">
            <mxPoint x="570.603333333333" y="931.5277777777776" as="sourcePoint" />
            <mxPoint x="630.6033333333331" y="931.5277777777776" as="targetPoint" />
          </mxGeometry>
        </mxCell>
        <mxCell id="l8Qek_9s6xdW2GuOrR4t-422" value="" style="edgeStyle=none;endArrow=none;" parent="1" edge="1">
          <mxGeometry width="100" height="100" relative="1" as="geometry">
            <mxPoint x="520.603333333333" y="801.5277777777774" as="sourcePoint" />
            <mxPoint x="540.6033333333332" y="781.5277777777775" as="targetPoint" />
          </mxGeometry>
        </mxCell>
        <mxCell id="l8Qek_9s6xdW2GuOrR4t-426" value="" style="edgeStyle=none;endArrow=none;endFill=1;startFill=1;startArrow=oval;" parent="1" edge="1">
          <mxGeometry width="100" height="100" relative="1" as="geometry">
            <mxPoint x="590" y="813" as="sourcePoint" />
            <mxPoint x="611.4510802469134" y="799" as="targetPoint" />
          </mxGeometry>
        </mxCell>
        <mxCell id="l8Qek_9s6xdW2GuOrR4t-432" value="" style="edgeStyle=none;endArrow=none;startArrow=oval;startFill=1;" parent="1" edge="1">
          <mxGeometry width="100" height="100" relative="1" as="geometry">
            <mxPoint x="610.6033333333331" y="927" as="sourcePoint" />
            <mxPoint x="630.6033333333331" y="911.5277777777776" as="targetPoint" />
          </mxGeometry>
        </mxCell>
        <mxCell id="l8Qek_9s6xdW2GuOrR4t-433" value="" style="edgeStyle=none;endArrow=none;startArrow=oval;startFill=1;" parent="1" edge="1">
          <mxGeometry width="100" height="100" relative="1" as="geometry">
            <mxPoint x="580.6033333333331" y="927" as="sourcePoint" />
            <mxPoint x="600.6033333333331" y="911" as="targetPoint" />
          </mxGeometry>
        </mxCell>
        <mxCell id="l8Qek_9s6xdW2GuOrR4t-435" value="" style="edgeStyle=none;endArrow=oval;startArrow=none;startFill=0;endFill=1;" parent="1" edge="1">
          <mxGeometry width="100" height="100" relative="1" as="geometry">
            <mxPoint x="540" y="951" as="sourcePoint" />
            <mxPoint x="560.6033333333331" y="935" as="targetPoint" />
          </mxGeometry>
        </mxCell>
        <mxCell id="l8Qek_9s6xdW2GuOrR4t-436" value="" style="edgeStyle=none;endArrow=oval;startArrow=none;startFill=0;endFill=1;" parent="1" edge="1">
          <mxGeometry width="100" height="100" relative="1" as="geometry">
            <mxPoint x="510.6033333333331" y="952" as="sourcePoint" />
            <mxPoint x="530.6033333333331" y="935" as="targetPoint" />
          </mxGeometry>
        </mxCell>
        <mxCell id="l8Qek_9s6xdW2GuOrR4t-438" value="" style="edgeStyle=none;endArrow=oval;endFill=1;" parent="1" edge="1">
          <mxGeometry width="100" height="100" relative="1" as="geometry">
            <mxPoint x="530.6033333333331" y="911.5277777777776" as="sourcePoint" />
            <mxPoint x="550.6033333333331" y="895" as="targetPoint" />
          </mxGeometry>
        </mxCell>
        <mxCell id="l8Qek_9s6xdW2GuOrR4t-439" value="Grind&#xa;Size" style="text;spacingTop=-5;fontSize=8;align=center;verticalAlign=middle;points=[]" parent="1" vertex="1">
          <mxGeometry x="460.6033333333331" y="771.5277777777776" width="30" height="19.999999999999886" as="geometry" />
        </mxCell>
        <mxCell id="l8Qek_9s6xdW2GuOrR4t-441" value="Brewing&#xa;time" style="text;spacingTop=-5;fontSize=8;align=center;verticalAlign=middle;points=[]" parent="1" vertex="1">
          <mxGeometry x="499.3733333333331" y="844" width="30" height="19.999999999999886" as="geometry" />
        </mxCell>
        <mxCell id="l8Qek_9s6xdW2GuOrR4t-442" value="Knowledge" style="text;spacingTop=-5;fontSize=8;align=center;verticalAlign=middle;points=[]" parent="1" vertex="1">
          <mxGeometry x="490.3733333333331" y="882.4977777777779" width="30" height="19.999999999999886" as="geometry" />
        </mxCell>
        <mxCell id="l8Qek_9s6xdW2GuOrR4t-443" value="Skills" style="text;spacingTop=-5;fontSize=8;align=center;verticalAlign=middle;points=[]" parent="1" vertex="1">
          <mxGeometry x="480.37333333333305" y="921.9977777777774" width="30" height="19.999999999999886" as="geometry" />
        </mxCell>
        <mxCell id="l8Qek_9s6xdW2GuOrR4t-445" value="Inconsistent&#xa;grind size" style="text;spacingTop=-5;fontSize=6;align=center;verticalAlign=middle;points=[];fontStyle=4" parent="1" vertex="1">
          <mxGeometry x="488.66333333333324" y="794.9977777777774" width="30" height="19.999999999999886" as="geometry" />
        </mxCell>
        <mxCell id="l8Qek_9s6xdW2GuOrR4t-449" value="unaware of process" style="text;spacingTop=-5;fontSize=6;align=center;verticalAlign=middle;points=[]" parent="1" vertex="1">
          <mxGeometry x="523.4333333333332" y="911.5244444444442" width="30" height="19.999999999999886" as="geometry" />
        </mxCell>
        <mxCell id="l8Qek_9s6xdW2GuOrR4t-453" value="Incorrect coffee-to-&#xa;water ratio" style="text;spacingTop=-5;fontSize=6;align=center;verticalAlign=middle;points=[];fontStyle=4" parent="1" vertex="1">
          <mxGeometry x="595.4311111111109" y="783.8866666666663" width="30" height="19.999999999999886" as="geometry" />
        </mxCell>
        <mxCell id="l8Qek_9s6xdW2GuOrR4t-462" value="Coffee-to-&#xa;Water Ratio" style="text;spacingTop=-5;fontSize=8;align=center;verticalAlign=middle;points=[]" parent="1" vertex="1">
          <mxGeometry x="637.2266666666665" y="809.9999999999995" width="30" height="19.999999999999886" as="geometry" />
        </mxCell>
        <mxCell id="f8ZGEddBivC9AHqz260Z-267" value="" style="edgeStyle=none;endArrow=none;strokeWidth=2" parent="1" edge="1">
          <mxGeometry width="100" height="100" relative="1" as="geometry">
            <mxPoint x="65.99833333333324" y="62.110000000000014" as="sourcePoint" />
            <mxPoint x="125.99833333333322" y="62.110000000000014" as="targetPoint" />
          </mxGeometry>
        </mxCell>
        <mxCell id="f8ZGEddBivC9AHqz260Z-268" value="" style="edgeStyle=none;endArrow=none;strokeWidth=2" parent="1" edge="1">
          <mxGeometry width="100" height="100" relative="1" as="geometry">
            <mxPoint x="125.99833333333322" y="62.110000000000014" as="sourcePoint" />
            <mxPoint x="185.99833333333322" y="62.110000000000014" as="targetPoint" />
            <Array as="points">
              <mxPoint x="159.79" y="62" />
            </Array>
          </mxGeometry>
        </mxCell>
        <mxCell id="f8ZGEddBivC9AHqz260Z-270" value="" style="edgeStyle=none;endArrow=none;" parent="1" source="f8ZGEddBivC9AHqz260Z-275" edge="1">
          <mxGeometry width="100" height="100" relative="1" as="geometry">
            <mxPoint x="90" y="90" as="sourcePoint" />
            <mxPoint x="115.51608024691348" y="62.479598765432" as="targetPoint" />
          </mxGeometry>
        </mxCell>
        <mxCell id="f8ZGEddBivC9AHqz260Z-272" value="1.1 Quality&#xa;of beans" style="text;spacingTop=-5;fontSize=8;align=center;verticalAlign=middle;points=[]" parent="1" vertex="1">
          <mxGeometry x="30.998333333333207" y="56.110000000000014" width="30" height="19.999999999999886" as="geometry" />
        </mxCell>
        <mxCell id="f8ZGEddBivC9AHqz260Z-273" value="1.1.1 Origin" style="text;spacingTop=-5;fontSize=6;align=center;verticalAlign=middle;points=[]" parent="1" vertex="1">
          <mxGeometry x="49.05" y="10" width="24.68" height="12" as="geometry" />
        </mxCell>
        <mxCell id="f8ZGEddBivC9AHqz260Z-278" value="1.2 Freshness" style="text;spacingTop=-5;fontSize=8;align=center;verticalAlign=middle;points=[]" parent="1" vertex="1">
          <mxGeometry x="197.60166666666655" y="54" width="30" height="19.999999999999886" as="geometry" />
        </mxCell>
        <mxCell id="f8ZGEddBivC9AHqz260Z-279" value="" style="edgeStyle=none;endArrow=none;strokeWidth=2" parent="1" edge="1">
          <mxGeometry width="100" height="100" relative="1" as="geometry">
            <mxPoint x="68.72833333333323" y="245.71000000000004" as="sourcePoint" />
            <mxPoint x="128.72833333333324" y="245.71000000000004" as="targetPoint" />
          </mxGeometry>
        </mxCell>
        <mxCell id="f8ZGEddBivC9AHqz260Z-284" value="1.3 Roast &#xa;level" style="text;spacingTop=-5;fontSize=8;align=center;verticalAlign=middle;points=[]" parent="1" vertex="1">
          <mxGeometry x="39.26833333333321" y="237" width="30" height="19.999999999999886" as="geometry" />
        </mxCell>
        <mxCell id="f8ZGEddBivC9AHqz260Z-303" value="" style="edgeStyle=none;endArrow=none;" parent="1" edge="1">
          <mxGeometry width="100" height="100" relative="1" as="geometry">
            <mxPoint x="70" y="20" as="sourcePoint" />
            <mxPoint x="100" y="62" as="targetPoint" />
          </mxGeometry>
        </mxCell>
        <mxCell id="f8ZGEddBivC9AHqz260Z-275" value="1.1.2 Variety" style="text;spacingTop=-5;fontSize=6;align=center;verticalAlign=middle;points=[]" parent="1" vertex="1">
          <mxGeometry x="65.99388888888862" y="99.99777777777786" width="30" height="19.999999999999886" as="geometry" />
        </mxCell>
        <mxCell id="f8ZGEddBivC9AHqz260Z-305" value="" style="edgeStyle=none;endArrow=none;" parent="1" edge="1">
          <mxGeometry width="100" height="100" relative="1" as="geometry">
            <mxPoint x="57" y="30" as="sourcePoint" />
            <mxPoint x="77.00000000000001" y="30" as="targetPoint" />
          </mxGeometry>
        </mxCell>
        <mxCell id="f8ZGEddBivC9AHqz260Z-306" value="" style="edgeStyle=none;endArrow=none;" parent="1" edge="1">
          <mxGeometry width="100" height="100" relative="1" as="geometry">
            <mxPoint x="68.46000000000001" y="45.110000000000014" as="sourcePoint" />
            <mxPoint x="88.46000000000001" y="45.110000000000014" as="targetPoint" />
          </mxGeometry>
        </mxCell>
        <mxCell id="f8ZGEddBivC9AHqz260Z-307" value="" style="edgeStyle=none;endArrow=none;" parent="1" edge="1">
          <mxGeometry width="100" height="100" relative="1" as="geometry">
            <mxPoint x="84.99000000000001" y="78" as="sourcePoint" />
            <mxPoint x="104.99000000000001" y="78" as="targetPoint" />
          </mxGeometry>
        </mxCell>
        <mxCell id="f8ZGEddBivC9AHqz260Z-308" value="" style="edgeStyle=none;endArrow=none;" parent="1" edge="1">
          <mxGeometry width="100" height="100" relative="1" as="geometry">
            <mxPoint x="96" y="88" as="sourcePoint" />
            <mxPoint x="112.00000000000001" y="88" as="targetPoint" />
          </mxGeometry>
        </mxCell>
        <mxCell id="f8ZGEddBivC9AHqz260Z-309" value="1.1.2.1&#xa;Arabica" style="text;spacingTop=-5;fontSize=6;align=center;verticalAlign=middle;points=[]" parent="1" vertex="1">
          <mxGeometry x="63.540000000000006" y="76" width="19.01" height="10" as="geometry" />
        </mxCell>
        <mxCell id="f8ZGEddBivC9AHqz260Z-310" value="1.1.2.2&#xa;Robusta" style="text;spacingTop=-5;fontSize=6;align=center;verticalAlign=middle;points=[]" parent="1" vertex="1">
          <mxGeometry x="115" y="86" width="19.01" height="10" as="geometry" />
        </mxCell>
        <mxCell id="f8ZGEddBivC9AHqz260Z-314" value="1.1.1.1&#xa;Brazil" style="text;spacingTop=-5;fontSize=6;align=center;verticalAlign=middle;points=[]" parent="1" vertex="1">
          <mxGeometry x="37" y="27" width="19.01" height="10" as="geometry" />
        </mxCell>
        <mxCell id="f8ZGEddBivC9AHqz260Z-315" value="1.1.1.2&#xa;Kenia" style="text;spacingTop=-5;fontSize=6;align=center;verticalAlign=middle;points=[]" parent="1" vertex="1">
          <mxGeometry x="47.22" y="42" width="19.01" height="10" as="geometry" />
        </mxCell>
        <mxCell id="f8ZGEddBivC9AHqz260Z-318" value="" style="edgeStyle=none;endArrow=none;" parent="1" edge="1">
          <mxGeometry width="100" height="100" relative="1" as="geometry">
            <mxPoint x="148" y="62" as="sourcePoint" />
            <mxPoint x="174.99608024691346" y="23" as="targetPoint" />
          </mxGeometry>
        </mxCell>
        <mxCell id="f8ZGEddBivC9AHqz260Z-319" value="1.2.1 Roasting&#xa;date" style="text;spacingTop=-5;fontSize=6;align=center;verticalAlign=middle;points=[]" parent="1" vertex="1">
          <mxGeometry x="168.0138888888886" y="9.997777777777856" width="30" height="19.999999999999886" as="geometry" />
        </mxCell>
        <mxCell id="f8ZGEddBivC9AHqz260Z-320" value="" style="edgeStyle=none;endArrow=none;" parent="1" edge="1">
          <mxGeometry width="100" height="100" relative="1" as="geometry">
            <mxPoint x="150.58" y="30" as="sourcePoint" />
            <mxPoint x="170.58" y="30" as="targetPoint" />
          </mxGeometry>
        </mxCell>
        <mxCell id="f8ZGEddBivC9AHqz260Z-321" value="" style="edgeStyle=none;endArrow=none;" parent="1" edge="1">
          <mxGeometry width="100" height="100" relative="1" as="geometry">
            <mxPoint x="157.57" y="48.110000000000014" as="sourcePoint" />
            <mxPoint x="173.57000000000002" y="48.110000000000014" as="targetPoint" />
          </mxGeometry>
        </mxCell>
        <mxCell id="f8ZGEddBivC9AHqz260Z-322" value="1.2.1.1&#xa;2 weeks" style="text;spacingTop=-5;fontSize=6;align=center;verticalAlign=middle;points=[]" parent="1" vertex="1">
          <mxGeometry x="128.73000000000002" y="27.000000000000014" width="19.01" height="10" as="geometry" />
        </mxCell>
        <mxCell id="f8ZGEddBivC9AHqz260Z-323" value="1.2.1.2&#xa;4 weeks" style="text;spacingTop=-5;fontSize=6;align=center;verticalAlign=middle;points=[]" parent="1" vertex="1">
          <mxGeometry x="176.57" y="46.110000000000014" width="19.01" height="10" as="geometry" />
        </mxCell>
        <mxCell id="f8ZGEddBivC9AHqz260Z-324" value="1.2.2&#xa;Storage" style="text;spacingTop=-5;fontSize=6;align=center;verticalAlign=middle;points=[]" parent="1" vertex="1">
          <mxGeometry x="192.51999999999998" y="108" width="24.68" height="12" as="geometry" />
        </mxCell>
        <mxCell id="f8ZGEddBivC9AHqz260Z-325" value="" style="edgeStyle=none;endArrow=none;" parent="1" edge="1">
          <mxGeometry width="100" height="100" relative="1" as="geometry">
            <mxPoint x="162.53" y="62" as="sourcePoint" />
            <mxPoint x="192.53" y="104" as="targetPoint" />
          </mxGeometry>
        </mxCell>
        <mxCell id="f8ZGEddBivC9AHqz260Z-326" value="" style="edgeStyle=none;endArrow=none;" parent="1" edge="1">
          <mxGeometry width="100" height="100" relative="1" as="geometry">
            <mxPoint x="173.01000000000002" y="75.66999999999999" as="sourcePoint" />
            <mxPoint x="193.01000000000002" y="75.66999999999999" as="targetPoint" />
          </mxGeometry>
        </mxCell>
        <mxCell id="f8ZGEddBivC9AHqz260Z-327" value="" style="edgeStyle=none;endArrow=none;" parent="1" edge="1">
          <mxGeometry width="100" height="100" relative="1" as="geometry">
            <mxPoint x="180.58" y="86.83000000000001" as="sourcePoint" />
            <mxPoint x="200.58" y="86.83000000000001" as="targetPoint" />
          </mxGeometry>
        </mxCell>
        <mxCell id="f8ZGEddBivC9AHqz260Z-328" value="1.2.2.1 moisture" style="text;spacingTop=-5;fontSize=6;align=center;verticalAlign=middle;points=[]" parent="1" vertex="1">
          <mxGeometry x="206.08" y="73" width="19.01" height="10" as="geometry" />
        </mxCell>
        <mxCell id="f8ZGEddBivC9AHqz260Z-329" value="1.2.2.2 temperature" style="text;spacingTop=-5;fontSize=6;align=center;verticalAlign=middle;points=[]" parent="1" vertex="1">
          <mxGeometry x="218.12" y="84" width="19.01" height="10" as="geometry" />
        </mxCell>
        <mxCell id="f8ZGEddBivC9AHqz260Z-332" value="" style="edgeStyle=none;endArrow=none;" parent="1" source="f8ZGEddBivC9AHqz260Z-333" edge="1">
          <mxGeometry width="100" height="100" relative="1" as="geometry">
            <mxPoint x="63.46" y="273.63" as="sourcePoint" />
            <mxPoint x="88.97608024691348" y="246.109598765432" as="targetPoint" />
          </mxGeometry>
        </mxCell>
        <mxCell id="f8ZGEddBivC9AHqz260Z-333" value="1.3.2 temperature" style="text;spacingTop=-5;fontSize=6;align=center;verticalAlign=middle;points=[]" parent="1" vertex="1">
          <mxGeometry x="39.45388888888862" y="283.62777777777785" width="30" height="19.999999999999886" as="geometry" />
        </mxCell>
        <mxCell id="f8ZGEddBivC9AHqz260Z-334" value="" style="edgeStyle=none;endArrow=none;" parent="1" edge="1">
          <mxGeometry width="100" height="100" relative="1" as="geometry">
            <mxPoint x="58.45000000000001" y="261.63" as="sourcePoint" />
            <mxPoint x="78.45000000000002" y="261.63" as="targetPoint" />
          </mxGeometry>
        </mxCell>
        <mxCell id="f8ZGEddBivC9AHqz260Z-335" value="" style="edgeStyle=none;endArrow=none;" parent="1" edge="1">
          <mxGeometry width="100" height="100" relative="1" as="geometry">
            <mxPoint x="69.46000000000001" y="271.63" as="sourcePoint" />
            <mxPoint x="85.46000000000001" y="271.63" as="targetPoint" />
          </mxGeometry>
        </mxCell>
        <mxCell id="f8ZGEddBivC9AHqz260Z-336" value="1.3.2.1&#xa;220°C" style="text;spacingTop=-5;fontSize=6;align=center;verticalAlign=middle;points=[]" parent="1" vertex="1">
          <mxGeometry x="37.00000000000001" y="259.63" width="19.01" height="10" as="geometry" />
        </mxCell>
        <mxCell id="f8ZGEddBivC9AHqz260Z-337" value="1.3.2.2&#xa;200°C" style="text;spacingTop=-5;fontSize=6;align=center;verticalAlign=middle;points=[]" parent="1" vertex="1">
          <mxGeometry x="88.46000000000001" y="269.63" width="19.01" height="10" as="geometry" />
        </mxCell>
        <mxCell id="f8ZGEddBivC9AHqz260Z-340" value="1.3.1 Duration" style="text;spacingTop=-5;fontSize=6;align=center;verticalAlign=middle;points=[]" parent="1" vertex="1">
          <mxGeometry x="61.55" y="193.58000000000004" width="24.68" height="12" as="geometry" />
        </mxCell>
        <mxCell id="f8ZGEddBivC9AHqz260Z-341" value="" style="edgeStyle=none;endArrow=none;" parent="1" edge="1">
          <mxGeometry width="100" height="100" relative="1" as="geometry">
            <mxPoint x="82.5" y="203.58000000000004" as="sourcePoint" />
            <mxPoint x="112.5" y="245.58000000000004" as="targetPoint" />
          </mxGeometry>
        </mxCell>
        <mxCell id="f8ZGEddBivC9AHqz260Z-346" value="" style="edgeStyle=none;endArrow=none;strokeWidth=2" parent="1" edge="1">
          <mxGeometry width="100" height="100" relative="1" as="geometry">
            <mxPoint x="220.57833333333326" y="245.69000000000005" as="sourcePoint" />
            <mxPoint x="280.5783333333332" y="245.69000000000005" as="targetPoint" />
          </mxGeometry>
        </mxCell>
        <mxCell id="f8ZGEddBivC9AHqz260Z-347" value="" style="edgeStyle=none;endArrow=none;strokeWidth=2" parent="1" edge="1">
          <mxGeometry width="100" height="100" relative="1" as="geometry">
            <mxPoint x="280.5783333333332" y="245.69000000000005" as="sourcePoint" />
            <mxPoint x="340.5783333333332" y="245.69000000000005" as="targetPoint" />
            <Array as="points">
              <mxPoint x="314.37" y="245.58000000000004" />
            </Array>
          </mxGeometry>
        </mxCell>
        <mxCell id="f8ZGEddBivC9AHqz260Z-348" value="" style="edgeStyle=none;endArrow=none;" parent="1" source="f8ZGEddBivC9AHqz260Z-353" edge="1">
          <mxGeometry width="100" height="100" relative="1" as="geometry">
            <mxPoint x="244.58" y="273.58000000000004" as="sourcePoint" />
            <mxPoint x="270.09608024691346" y="246.05959876543204" as="targetPoint" />
          </mxGeometry>
        </mxCell>
        <mxCell id="f8ZGEddBivC9AHqz260Z-349" value="2.2 Cleaning&#xa;material" style="text;spacingTop=-5;fontSize=8;align=center;verticalAlign=middle;points=[]" parent="1" vertex="1">
          <mxGeometry x="184" y="237" width="30" height="19.999999999999886" as="geometry" />
        </mxCell>
        <mxCell id="f8ZGEddBivC9AHqz260Z-350" value="2.2.1 Water Quality" style="text;spacingTop=-5;fontSize=6;align=center;verticalAlign=middle;points=[]" parent="1" vertex="1">
          <mxGeometry x="203.63" y="193.58000000000004" width="24.68" height="12" as="geometry" />
        </mxCell>
        <mxCell id="f8ZGEddBivC9AHqz260Z-351" value="2.3 Cleaning&#xa;frequency" style="text;spacingTop=-5;fontSize=8;align=center;verticalAlign=middle;points=[]" parent="1" vertex="1">
          <mxGeometry x="349" y="237" width="30" height="19.999999999999886" as="geometry" />
        </mxCell>
        <mxCell id="f8ZGEddBivC9AHqz260Z-352" value="" style="edgeStyle=none;endArrow=none;" parent="1" edge="1">
          <mxGeometry width="100" height="100" relative="1" as="geometry">
            <mxPoint x="224.58" y="203.58000000000004" as="sourcePoint" />
            <mxPoint x="254.58" y="245.58000000000004" as="targetPoint" />
          </mxGeometry>
        </mxCell>
        <mxCell id="f8ZGEddBivC9AHqz260Z-353" value="2.2.2 Sponge" style="text;spacingTop=-5;fontSize=6;align=center;verticalAlign=middle;points=[];fontStyle=1" parent="1" vertex="1">
          <mxGeometry x="220.57388888888863" y="283.5777777777779" width="30" height="19.999999999999886" as="geometry" />
        </mxCell>
        <mxCell id="f8ZGEddBivC9AHqz260Z-354" value="" style="edgeStyle=none;endArrow=none;" parent="1" edge="1">
          <mxGeometry width="100" height="100" relative="1" as="geometry">
            <mxPoint x="210.79000000000002" y="213.58000000000004" as="sourcePoint" />
            <mxPoint x="230.79000000000002" y="213.58000000000004" as="targetPoint" />
          </mxGeometry>
        </mxCell>
        <mxCell id="f8ZGEddBivC9AHqz260Z-355" value="" style="edgeStyle=none;endArrow=none;" parent="1" edge="1">
          <mxGeometry width="100" height="100" relative="1" as="geometry">
            <mxPoint x="240.58" y="225.38000000000005" as="sourcePoint" />
            <mxPoint x="260.58000000000004" y="225.38000000000005" as="targetPoint" />
          </mxGeometry>
        </mxCell>
        <mxCell id="f8ZGEddBivC9AHqz260Z-356" value="" style="edgeStyle=none;endArrow=none;" parent="1" edge="1">
          <mxGeometry width="100" height="100" relative="1" as="geometry">
            <mxPoint x="239.57000000000002" y="261.58000000000004" as="sourcePoint" />
            <mxPoint x="259.57" y="261.58000000000004" as="targetPoint" />
          </mxGeometry>
        </mxCell>
        <mxCell id="f8ZGEddBivC9AHqz260Z-358" value="2.2.2.1&#xa;Usage" style="text;spacingTop=-5;fontSize=6;align=center;verticalAlign=middle;points=[];fontStyle=1" parent="1" vertex="1">
          <mxGeometry x="218.12" y="259.58000000000004" width="19.01" height="10" as="geometry" />
        </mxCell>
        <mxCell id="f8ZGEddBivC9AHqz260Z-360" value="2.2.1.1 &#xa;filtered" style="text;spacingTop=-5;fontSize=6;align=center;verticalAlign=middle;points=[]" parent="1" vertex="1">
          <mxGeometry x="191.58" y="210.58000000000004" width="19.01" height="10" as="geometry" />
        </mxCell>
        <mxCell id="f8ZGEddBivC9AHqz260Z-361" value="2.2.1.3 tap &#xa;water" style="text;spacingTop=-5;fontSize=6;align=center;verticalAlign=middle;points=[]" parent="1" vertex="1">
          <mxGeometry x="261.53000000000003" y="220.58000000000004" width="19.01" height="10" as="geometry" />
        </mxCell>
        <mxCell id="f8ZGEddBivC9AHqz260Z-368" value="2.3.1 Time&#xa;schedule" style="text;spacingTop=-5;fontSize=6;align=center;verticalAlign=middle;points=[]" parent="1" vertex="1">
          <mxGeometry x="324.53" y="291.63000000000005" width="24.68" height="12" as="geometry" />
        </mxCell>
        <mxCell id="f8ZGEddBivC9AHqz260Z-369" value="" style="edgeStyle=none;endArrow=none;" parent="1" edge="1">
          <mxGeometry width="100" height="100" relative="1" as="geometry">
            <mxPoint x="294.54" y="245.63000000000005" as="sourcePoint" />
            <mxPoint x="324.54" y="287.63000000000005" as="targetPoint" />
          </mxGeometry>
        </mxCell>
        <mxCell id="f8ZGEddBivC9AHqz260Z-370" value="" style="edgeStyle=none;endArrow=none;" parent="1" edge="1">
          <mxGeometry width="100" height="100" relative="1" as="geometry">
            <mxPoint x="305.02000000000004" y="259.3" as="sourcePoint" />
            <mxPoint x="325.02000000000004" y="259.3" as="targetPoint" />
          </mxGeometry>
        </mxCell>
        <mxCell id="f8ZGEddBivC9AHqz260Z-371" value="" style="edgeStyle=none;endArrow=none;" parent="1" edge="1">
          <mxGeometry width="100" height="100" relative="1" as="geometry">
            <mxPoint x="312.6" y="271.53000000000003" as="sourcePoint" />
            <mxPoint x="332.6" y="271.53000000000003" as="targetPoint" />
          </mxGeometry>
        </mxCell>
        <mxCell id="f8ZGEddBivC9AHqz260Z-372" value="2.3.1.1 weekly" style="text;spacingTop=-5;fontSize=6;align=center;verticalAlign=middle;points=[]" parent="1" vertex="1">
          <mxGeometry x="337" y="256.63000000000005" width="19.01" height="10" as="geometry" />
        </mxCell>
        <mxCell id="f8ZGEddBivC9AHqz260Z-373" value="2.3.1.2 on-demand" style="text;spacingTop=-5;fontSize=6;align=center;verticalAlign=middle;points=[]" parent="1" vertex="1">
          <mxGeometry x="350" y="269" width="19.01" height="10" as="geometry" />
        </mxCell>
        <mxCell id="f8ZGEddBivC9AHqz260Z-385" value="" style="edgeStyle=none;endArrow=none;" parent="1" edge="1">
          <mxGeometry width="100" height="100" relative="1" as="geometry">
            <mxPoint x="226" y="205.58000000000004" as="sourcePoint" />
            <mxPoint x="246" y="205.58000000000004" as="targetPoint" />
          </mxGeometry>
        </mxCell>
        <mxCell id="f8ZGEddBivC9AHqz260Z-386" value="2.2.1.2&#xa;Rinsing agent" style="text;spacingTop=-5;fontSize=6;align=center;verticalAlign=middle;points=[]" parent="1" vertex="1">
          <mxGeometry x="248.31000000000003" y="204" width="19.01" height="10" as="geometry" />
        </mxCell>
        <mxCell id="f8ZGEddBivC9AHqz260Z-416" value="" style="edgeStyle=none;endArrow=none;strokeWidth=2" parent="1" edge="1">
          <mxGeometry width="100" height="100" relative="1" as="geometry">
            <mxPoint x="440" y="63" as="sourcePoint" />
            <mxPoint x="493.76833333333326" y="63.22000000000003" as="targetPoint" />
            <Array as="points">
              <mxPoint x="467.56" y="63.110000000000014" />
            </Array>
          </mxGeometry>
        </mxCell>
        <mxCell id="f8ZGEddBivC9AHqz260Z-418" value="3.1 Water&#xa;quality" style="text;spacingTop=-5;fontSize=8;align=center;verticalAlign=middle;points=[]" parent="1" vertex="1">
          <mxGeometry x="499.3783333333333" y="57.22000000000003" width="30" height="19.999999999999886" as="geometry" />
        </mxCell>
        <mxCell id="f8ZGEddBivC9AHqz260Z-419" value="3.1.1 filtered" style="text;spacingTop=-5;fontSize=6;align=center;verticalAlign=middle;points=[]" parent="1" vertex="1">
          <mxGeometry x="474.70000000000005" y="15" width="24.68" height="12" as="geometry" />
        </mxCell>
        <mxCell id="f8ZGEddBivC9AHqz260Z-422" value="3.1.2 tap water" style="text;spacingTop=-5;fontSize=6;align=center;verticalAlign=middle;points=[]" parent="1" vertex="1">
          <mxGeometry x="490.37388888888864" y="101.10777777777787" width="30" height="19.999999999999886" as="geometry" />
        </mxCell>
        <mxCell id="f8ZGEddBivC9AHqz260Z-427" value="3.1.2.2 kitchen" style="text;spacingTop=-5;fontSize=6;align=center;verticalAlign=middle;points=[]" parent="1" vertex="1">
          <mxGeometry x="523" y="88" width="19.01" height="10" as="geometry" />
        </mxCell>
        <mxCell id="f8ZGEddBivC9AHqz260Z-429" value="3.1.1.2 on-tap filter" style="text;spacingTop=-5;fontSize=6;align=center;verticalAlign=middle;points=[]" parent="1" vertex="1">
          <mxGeometry x="498" y="46.110000000000014" width="19.01" height="10" as="geometry" />
        </mxCell>
        <mxCell id="f8ZGEddBivC9AHqz260Z-430" value="3.1.1.1&#xa;filter" style="text;spacingTop=-5;fontSize=6;align=center;verticalAlign=middle;points=[]" parent="1" vertex="1">
          <mxGeometry x="439.62" y="28.110000000000014" width="19.01" height="10" as="geometry" />
        </mxCell>
        <mxCell id="f8ZGEddBivC9AHqz260Z-431" value="" style="edgeStyle=none;endArrow=none;" parent="1" edge="1">
          <mxGeometry width="100" height="100" relative="1" as="geometry">
            <mxPoint x="455.77000000000004" y="63.110000000000014" as="sourcePoint" />
            <mxPoint x="482.76608024691353" y="24.11" as="targetPoint" />
          </mxGeometry>
        </mxCell>
        <mxCell id="f8ZGEddBivC9AHqz260Z-433" value="" style="edgeStyle=none;endArrow=none;" parent="1" edge="1">
          <mxGeometry width="100" height="100" relative="1" as="geometry">
            <mxPoint x="458.3500000000001" y="31.110000000000014" as="sourcePoint" />
            <mxPoint x="478.3500000000001" y="31.110000000000014" as="targetPoint" />
          </mxGeometry>
        </mxCell>
        <mxCell id="f8ZGEddBivC9AHqz260Z-434" value="" style="edgeStyle=none;endArrow=none;" parent="1" edge="1">
          <mxGeometry width="100" height="100" relative="1" as="geometry">
            <mxPoint x="465.34000000000003" y="49.22000000000003" as="sourcePoint" />
            <mxPoint x="481.3400000000001" y="49.22000000000003" as="targetPoint" />
          </mxGeometry>
        </mxCell>
        <mxCell id="f8ZGEddBivC9AHqz260Z-438" value="" style="edgeStyle=none;endArrow=none;" parent="1" edge="1">
          <mxGeometry width="100" height="100" relative="1" as="geometry">
            <mxPoint x="470.3" y="63.110000000000014" as="sourcePoint" />
            <mxPoint x="500.3" y="105.11000000000001" as="targetPoint" />
          </mxGeometry>
        </mxCell>
        <mxCell id="f8ZGEddBivC9AHqz260Z-439" value="" style="edgeStyle=none;endArrow=none;" parent="1" edge="1">
          <mxGeometry width="100" height="100" relative="1" as="geometry">
            <mxPoint x="483.43" y="80.83000000000001" as="sourcePoint" />
            <mxPoint x="503.43" y="80.83000000000001" as="targetPoint" />
          </mxGeometry>
        </mxCell>
        <mxCell id="f8ZGEddBivC9AHqz260Z-440" value="" style="edgeStyle=none;endArrow=none;" parent="1" edge="1">
          <mxGeometry width="100" height="100" relative="1" as="geometry">
            <mxPoint x="490.37000000000006" y="90.94000000000003" as="sourcePoint" />
            <mxPoint x="510.37000000000006" y="90.94000000000003" as="targetPoint" />
          </mxGeometry>
        </mxCell>
        <mxCell id="f8ZGEddBivC9AHqz260Z-443" value="" style="edgeStyle=none;exitX=0.5;exitY=1;strokeWidth=3" parent="1" edge="1">
          <mxGeometry width="100" height="100" relative="1" as="geometry">
            <mxPoint x="256.89" y="11.11" as="sourcePoint" />
            <mxPoint x="316.43" y="121.10999999999999" as="targetPoint" />
          </mxGeometry>
        </mxCell>
        <mxCell id="f8ZGEddBivC9AHqz260Z-471" value="3.1.2.1 temperature" style="text;spacingTop=-5;fontSize=6;align=center;verticalAlign=middle;points=[]" parent="1" vertex="1">
          <mxGeometry x="522" y="78" width="19.01" height="10" as="geometry" />
        </mxCell>
        <mxCell id="f8ZGEddBivC9AHqz260Z-487" value="" style="edgeStyle=none;endArrow=none;strokeWidth=2" parent="1" edge="1">
          <mxGeometry width="100" height="100" relative="1" as="geometry">
            <mxPoint x="283.59833333333324" y="62.110000000000014" as="sourcePoint" />
            <mxPoint x="343.59833333333324" y="62.110000000000014" as="targetPoint" />
            <Array as="points">
              <mxPoint x="317.39" y="62" />
            </Array>
          </mxGeometry>
        </mxCell>
        <mxCell id="f8ZGEddBivC9AHqz260Z-488" value="2.1 Parts to &#xa;be cleaned" style="text;spacingTop=-5;fontSize=8;align=center;verticalAlign=middle;points=[]" parent="1" vertex="1">
          <mxGeometry x="350.12166666666656" y="56.11222222222219" width="30" height="19.999999999999886" as="geometry" />
        </mxCell>
        <mxCell id="f8ZGEddBivC9AHqz260Z-490" value="" style="edgeStyle=none;endArrow=none;" parent="1" edge="1">
          <mxGeometry width="100" height="100" relative="1" as="geometry">
            <mxPoint x="305.6" y="62" as="sourcePoint" />
            <mxPoint x="332.59608024691346" y="23" as="targetPoint" />
          </mxGeometry>
        </mxCell>
        <mxCell id="f8ZGEddBivC9AHqz260Z-491" value="2.1.1 coffee reservoir" style="text;spacingTop=-5;fontSize=6;align=center;verticalAlign=middle;points=[];fontStyle=1" parent="1" vertex="1">
          <mxGeometry x="325.6138888888886" y="9.997777777777856" width="30" height="19.999999999999886" as="geometry" />
        </mxCell>
        <mxCell id="f8ZGEddBivC9AHqz260Z-492" value="" style="edgeStyle=none;endArrow=none;" parent="1" edge="1">
          <mxGeometry width="100" height="100" relative="1" as="geometry">
            <mxPoint x="308.18" y="30" as="sourcePoint" />
            <mxPoint x="328.18" y="30" as="targetPoint" />
          </mxGeometry>
        </mxCell>
        <mxCell id="f8ZGEddBivC9AHqz260Z-493" value="" style="edgeStyle=none;endArrow=none;" parent="1" edge="1">
          <mxGeometry width="100" height="100" relative="1" as="geometry">
            <mxPoint x="315.16999999999996" y="48.110000000000014" as="sourcePoint" />
            <mxPoint x="331.17" y="48.110000000000014" as="targetPoint" />
          </mxGeometry>
        </mxCell>
        <mxCell id="f8ZGEddBivC9AHqz260Z-494" value="2.1.1.1&#xa;stale water" style="text;spacingTop=-5;fontSize=6;align=center;verticalAlign=middle;points=[]" parent="1" vertex="1">
          <mxGeometry x="284.54" y="27" width="19.01" height="10" as="geometry" />
        </mxCell>
        <mxCell id="f8ZGEddBivC9AHqz260Z-495" value="2.1.1.2&#xa;yeast" style="text;spacingTop=-5;fontSize=6;align=center;verticalAlign=middle;points=[];fontStyle=1" parent="1" vertex="1">
          <mxGeometry x="334.16999999999996" y="46.110000000000014" width="19.01" height="10" as="geometry" />
        </mxCell>
        <mxCell id="f8ZGEddBivC9AHqz260Z-496" value="2.1.2 brewing unit" style="text;spacingTop=-5;fontSize=6;align=center;verticalAlign=middle;points=[]" parent="1" vertex="1">
          <mxGeometry x="350.12" y="108" width="24.68" height="12" as="geometry" />
        </mxCell>
        <mxCell id="f8ZGEddBivC9AHqz260Z-497" value="" style="edgeStyle=none;endArrow=none;" parent="1" edge="1">
          <mxGeometry width="100" height="100" relative="1" as="geometry">
            <mxPoint x="320.13" y="62" as="sourcePoint" />
            <mxPoint x="350.13" y="104" as="targetPoint" />
          </mxGeometry>
        </mxCell>
        <mxCell id="f8ZGEddBivC9AHqz260Z-498" value="" style="edgeStyle=none;endArrow=none;" parent="1" edge="1">
          <mxGeometry width="100" height="100" relative="1" as="geometry">
            <mxPoint x="334.54" y="83" as="sourcePoint" />
            <mxPoint x="354.54" y="83" as="targetPoint" />
          </mxGeometry>
        </mxCell>
        <mxCell id="f8ZGEddBivC9AHqz260Z-500" value="2.1.2.1 lubricant" style="text;spacingTop=-5;fontSize=6;align=center;verticalAlign=middle;points=[]" parent="1" vertex="1">
          <mxGeometry x="369" y="82" width="19.01" height="8" as="geometry" />
        </mxCell>
        <mxCell id="f8ZGEddBivC9AHqz260Z-502" value="" style="edgeStyle=none;endArrow=none;" parent="1" edge="1">
          <mxGeometry width="100" height="100" relative="1" as="geometry">
            <mxPoint x="345.01000000000005" y="96" as="sourcePoint" />
            <mxPoint x="365.01000000000005" y="96" as="targetPoint" />
          </mxGeometry>
        </mxCell>
        <mxCell id="f8ZGEddBivC9AHqz260Z-503" value="2.1.2.2 coffee remains" style="text;spacingTop=-5;fontSize=6;align=center;verticalAlign=middle;points=[]" parent="1" vertex="1">
          <mxGeometry x="387" y="94" width="19.01" height="8" as="geometry" />
        </mxCell>
        <mxCell id="f8ZGEddBivC9AHqz260Z-506" value="" style="edgeStyle=none;endArrow=none;strokeWidth=2" parent="1" edge="1">
          <mxGeometry width="100" height="100" relative="1" as="geometry">
            <mxPoint x="435.92833333333317" y="244.00000000000006" as="sourcePoint" />
            <mxPoint x="495.92833333333317" y="244.00000000000006" as="targetPoint" />
            <Array as="points">
              <mxPoint x="469.72" y="243.89000000000004" />
            </Array>
          </mxGeometry>
        </mxCell>
        <mxCell id="f8ZGEddBivC9AHqz260Z-507" value="3.2 Coffee&#xa;reservoir" style="text;spacingTop=-5;fontSize=8;align=center;verticalAlign=middle;points=[]" parent="1" vertex="1">
          <mxGeometry x="502.4516666666665" y="238.0022222222222" width="30" height="19.999999999999886" as="geometry" />
        </mxCell>
        <mxCell id="f8ZGEddBivC9AHqz260Z-508" value="3.2.2 capacity" style="text;spacingTop=-5;fontSize=6;align=center;verticalAlign=middle;points=[]" parent="1" vertex="1">
          <mxGeometry x="479.88" y="289.94000000000005" width="24.68" height="12" as="geometry" />
        </mxCell>
        <mxCell id="f8ZGEddBivC9AHqz260Z-509" value="" style="edgeStyle=none;endArrow=none;" parent="1" edge="1">
          <mxGeometry width="100" height="100" relative="1" as="geometry">
            <mxPoint x="449.89" y="243.94000000000005" as="sourcePoint" />
            <mxPoint x="479.89" y="285.94000000000005" as="targetPoint" />
          </mxGeometry>
        </mxCell>
        <mxCell id="f8ZGEddBivC9AHqz260Z-510" value="" style="edgeStyle=none;endArrow=none;" parent="1" edge="1">
          <mxGeometry width="100" height="100" relative="1" as="geometry">
            <mxPoint x="467.16" y="268.40000000000003" as="sourcePoint" />
            <mxPoint x="487.16" y="268.40000000000003" as="targetPoint" />
          </mxGeometry>
        </mxCell>
        <mxCell id="f8ZGEddBivC9AHqz260Z-511" value="3.2.2.1 1000 ml" style="text;spacingTop=-5;fontSize=6;align=center;verticalAlign=middle;points=[]" parent="1" vertex="1">
          <mxGeometry x="500" y="266.63000000000005" width="19.01" height="10" as="geometry" />
        </mxCell>
        <mxCell id="f8ZGEddBivC9AHqz260Z-516" value="" style="edgeStyle=none;endArrow=none;" parent="1" edge="1">
          <mxGeometry width="100" height="100" relative="1" as="geometry">
            <mxPoint x="479.36" y="244" as="sourcePoint" />
            <mxPoint x="506.3560802469135" y="205" as="targetPoint" />
          </mxGeometry>
        </mxCell>
        <mxCell id="f8ZGEddBivC9AHqz260Z-517" value="3.2.1 mechanism" style="text;spacingTop=-5;fontSize=6;align=center;verticalAlign=middle;points=[]" parent="1" vertex="1">
          <mxGeometry x="499.3738888888886" y="193.5777777777779" width="30" height="19.999999999999886" as="geometry" />
        </mxCell>
        <mxCell id="f8ZGEddBivC9AHqz260Z-518" value="" style="edgeStyle=none;endArrow=none;" parent="1" edge="1">
          <mxGeometry width="100" height="100" relative="1" as="geometry">
            <mxPoint x="481" y="213.58000000000004" as="sourcePoint" />
            <mxPoint x="500" y="213.58000000000004" as="targetPoint" />
          </mxGeometry>
        </mxCell>
        <mxCell id="f8ZGEddBivC9AHqz260Z-519" value="" style="edgeStyle=none;endArrow=none;" parent="1" edge="1">
          <mxGeometry width="100" height="100" relative="1" as="geometry">
            <mxPoint x="492.87" y="225.48000000000008" as="sourcePoint" />
            <mxPoint x="508.87000000000006" y="225.48000000000008" as="targetPoint" />
          </mxGeometry>
        </mxCell>
        <mxCell id="f8ZGEddBivC9AHqz260Z-520" value="3.2.1.1&#xa;sensor" style="text;spacingTop=-5;fontSize=6;align=center;verticalAlign=middle;points=[]" parent="1" vertex="1">
          <mxGeometry x="460.09000000000003" y="210.58000000000004" width="19.01" height="10" as="geometry" />
        </mxCell>
        <mxCell id="f8ZGEddBivC9AHqz260Z-521" value="3.2.1.2 safety lock" style="text;spacingTop=-5;fontSize=6;align=center;verticalAlign=middle;points=[]" parent="1" vertex="1">
          <mxGeometry x="525" y="223" width="19.01" height="10" as="geometry" />
        </mxCell>
        <mxCell id="f8ZGEddBivC9AHqz260Z-522" value="" style="edgeStyle=none;endArrow=none;strokeWidth=2" parent="1" edge="1">
          <mxGeometry width="100" height="100" relative="1" as="geometry">
            <mxPoint x="590.73" y="62" as="sourcePoint" />
            <mxPoint x="644.4983333333332" y="62.22000000000003" as="targetPoint" />
            <Array as="points">
              <mxPoint x="618.29" y="62.110000000000014" />
            </Array>
          </mxGeometry>
        </mxCell>
        <mxCell id="f8ZGEddBivC9AHqz260Z-523" value="4.1 Brewing&#xa;time" style="text;spacingTop=-5;fontSize=8;align=center;verticalAlign=middle;points=[]" parent="1" vertex="1">
          <mxGeometry x="650.1083333333332" y="56.22000000000003" width="30" height="19.999999999999886" as="geometry" />
        </mxCell>
        <mxCell id="f8ZGEddBivC9AHqz260Z-524" value="4.1.1 coffee type" style="text;spacingTop=-5;fontSize=6;align=center;verticalAlign=middle;points=[]" parent="1" vertex="1">
          <mxGeometry x="625.4300000000001" y="14" width="24.68" height="12" as="geometry" />
        </mxCell>
        <mxCell id="f8ZGEddBivC9AHqz260Z-525" value="4.1.2.2 &quot;Eco Mode&quot;" style="text;spacingTop=-5;fontSize=6;align=center;verticalAlign=middle;points=[]" parent="1" vertex="1">
          <mxGeometry x="680" y="87" width="19.01" height="10" as="geometry" />
        </mxCell>
        <mxCell id="f8ZGEddBivC9AHqz260Z-526" value="4.1.1.2 Espresso" style="text;spacingTop=-5;fontSize=6;align=center;verticalAlign=middle;points=[]" parent="1" vertex="1">
          <mxGeometry x="648" y="45.110000000000014" width="19.01" height="10" as="geometry" />
        </mxCell>
        <mxCell id="f8ZGEddBivC9AHqz260Z-527" value="4.1.1.1&#xa;Lungo" style="text;spacingTop=-5;fontSize=6;align=center;verticalAlign=middle;points=[]" parent="1" vertex="1">
          <mxGeometry x="590.35" y="27.110000000000014" width="19.01" height="10" as="geometry" />
        </mxCell>
        <mxCell id="f8ZGEddBivC9AHqz260Z-528" value="" style="edgeStyle=none;endArrow=none;" parent="1" edge="1">
          <mxGeometry width="100" height="100" relative="1" as="geometry">
            <mxPoint x="606.5" y="62.110000000000014" as="sourcePoint" />
            <mxPoint x="633.4960802469135" y="23.110000000000014" as="targetPoint" />
          </mxGeometry>
        </mxCell>
        <mxCell id="f8ZGEddBivC9AHqz260Z-529" value="" style="edgeStyle=none;endArrow=none;" parent="1" edge="1">
          <mxGeometry width="100" height="100" relative="1" as="geometry">
            <mxPoint x="609.08" y="30.110000000000014" as="sourcePoint" />
            <mxPoint x="629.08" y="30.110000000000014" as="targetPoint" />
          </mxGeometry>
        </mxCell>
        <mxCell id="f8ZGEddBivC9AHqz260Z-530" value="" style="edgeStyle=none;endArrow=none;" parent="1" edge="1">
          <mxGeometry width="100" height="100" relative="1" as="geometry">
            <mxPoint x="616.07" y="48.22000000000003" as="sourcePoint" />
            <mxPoint x="632.07" y="48.22000000000003" as="targetPoint" />
          </mxGeometry>
        </mxCell>
        <mxCell id="f8ZGEddBivC9AHqz260Z-531" value="" style="edgeStyle=none;endArrow=none;" parent="1" edge="1">
          <mxGeometry width="100" height="100" relative="1" as="geometry">
            <mxPoint x="621.03" y="62.110000000000014" as="sourcePoint" />
            <mxPoint x="651.03" y="104.11000000000001" as="targetPoint" />
          </mxGeometry>
        </mxCell>
        <mxCell id="f8ZGEddBivC9AHqz260Z-532" value="" style="edgeStyle=none;endArrow=none;" parent="1" edge="1">
          <mxGeometry width="100" height="100" relative="1" as="geometry">
            <mxPoint x="634.16" y="79.83000000000001" as="sourcePoint" />
            <mxPoint x="654.1600000000001" y="79.83000000000001" as="targetPoint" />
          </mxGeometry>
        </mxCell>
        <mxCell id="f8ZGEddBivC9AHqz260Z-533" value="" style="edgeStyle=none;endArrow=none;" parent="1" edge="1">
          <mxGeometry width="100" height="100" relative="1" as="geometry">
            <mxPoint x="641.1" y="89.94000000000003" as="sourcePoint" />
            <mxPoint x="661.1000000000001" y="89.94000000000003" as="targetPoint" />
          </mxGeometry>
        </mxCell>
        <mxCell id="f8ZGEddBivC9AHqz260Z-534" value="4.1.2.1 &quot;Normal&quot;" style="text;spacingTop=-5;fontSize=6;align=center;verticalAlign=middle;points=[]" parent="1" vertex="1">
          <mxGeometry x="669" y="76" width="19.01" height="10" as="geometry" />
        </mxCell>
        <mxCell id="f8ZGEddBivC9AHqz260Z-535" value="4.1.2 machine&#xa;program" style="text;spacingTop=-5;fontSize=6;align=center;verticalAlign=middle;points=[]" parent="1" vertex="1">
          <mxGeometry x="649.9538888888886" y="103.99777777777786" width="30" height="19.999999999999886" as="geometry" />
        </mxCell>
        <mxCell id="f8ZGEddBivC9AHqz260Z-536" value="" style="edgeStyle=none;endArrow=none;strokeWidth=2" parent="1" edge="1">
          <mxGeometry width="100" height="100" relative="1" as="geometry">
            <mxPoint x="587.2883333333332" y="245.64000000000004" as="sourcePoint" />
            <mxPoint x="647.2883333333332" y="245.64000000000004" as="targetPoint" />
            <Array as="points">
              <mxPoint x="621.08" y="245.53000000000003" />
            </Array>
          </mxGeometry>
        </mxCell>
        <mxCell id="f8ZGEddBivC9AHqz260Z-537" value="4.2. Coffee-to-&#xa;Water ratio" style="text;spacingTop=-5;fontSize=8;align=center;verticalAlign=middle;points=[]" parent="1" vertex="1">
          <mxGeometry x="658" y="239.6922222222222" width="30" height="19.999999999999886" as="geometry" />
        </mxCell>
        <mxCell id="f8ZGEddBivC9AHqz260Z-538" value="4.2.2 submission&#xa;due date" style="text;spacingTop=-5;fontSize=6;align=center;verticalAlign=middle;points=[]" parent="1" vertex="1">
          <mxGeometry x="631.24" y="291.58000000000004" width="24.68" height="12" as="geometry" />
        </mxCell>
        <mxCell id="f8ZGEddBivC9AHqz260Z-539" value="" style="edgeStyle=none;endArrow=none;" parent="1" edge="1">
          <mxGeometry width="100" height="100" relative="1" as="geometry">
            <mxPoint x="601.25" y="245.58000000000004" as="sourcePoint" />
            <mxPoint x="631.25" y="287.58000000000004" as="targetPoint" />
          </mxGeometry>
        </mxCell>
        <mxCell id="f8ZGEddBivC9AHqz260Z-540" value="" style="edgeStyle=none;endArrow=none;" parent="1" edge="1">
          <mxGeometry width="100" height="100" relative="1" as="geometry">
            <mxPoint x="618.52" y="270.04" as="sourcePoint" />
            <mxPoint x="638.52" y="270.04" as="targetPoint" />
          </mxGeometry>
        </mxCell>
        <mxCell id="f8ZGEddBivC9AHqz260Z-541" value="4.2.2.1 ISWC 2025" style="text;spacingTop=-5;fontSize=6;align=center;verticalAlign=middle;points=[]" parent="1" vertex="1">
          <mxGeometry x="655" y="268" width="19.01" height="10" as="geometry" />
        </mxCell>
        <mxCell id="f8ZGEddBivC9AHqz260Z-542" value="" style="edgeStyle=none;endArrow=none;" parent="1" edge="1">
          <mxGeometry width="100" height="100" relative="1" as="geometry">
            <mxPoint x="630.72" y="245.64" as="sourcePoint" />
            <mxPoint x="657.7160802469135" y="206.64" as="targetPoint" />
          </mxGeometry>
        </mxCell>
        <mxCell id="f8ZGEddBivC9AHqz260Z-543" value="4.2.1 beans" style="text;spacingTop=-5;fontSize=6;align=center;verticalAlign=middle;points=[]" parent="1" vertex="1">
          <mxGeometry x="650.7338888888886" y="195.21777777777788" width="30" height="19.999999999999886" as="geometry" />
        </mxCell>
        <mxCell id="f8ZGEddBivC9AHqz260Z-544" value="" style="edgeStyle=none;endArrow=none;" parent="1" edge="1">
          <mxGeometry width="100" height="100" relative="1" as="geometry">
            <mxPoint x="632.36" y="215.22000000000003" as="sourcePoint" />
            <mxPoint x="651.36" y="215.22000000000003" as="targetPoint" />
          </mxGeometry>
        </mxCell>
        <mxCell id="f8ZGEddBivC9AHqz260Z-545" value="" style="edgeStyle=none;endArrow=none;" parent="1" edge="1">
          <mxGeometry width="100" height="100" relative="1" as="geometry">
            <mxPoint x="644.23" y="227.12000000000006" as="sourcePoint" />
            <mxPoint x="660.2300000000001" y="227.12000000000006" as="targetPoint" />
          </mxGeometry>
        </mxCell>
        <mxCell id="f8ZGEddBivC9AHqz260Z-546" value="4.2.1.1 &#xa;caffeine&#xa;ratio" style="text;spacingTop=-5;fontSize=6;align=center;verticalAlign=middle;points=[]" parent="1" vertex="1">
          <mxGeometry x="611.45" y="212.22000000000003" width="19.01" height="10" as="geometry" />
        </mxCell>
        <mxCell id="f8ZGEddBivC9AHqz260Z-547" value="4.2.1.2. flavour" style="text;spacingTop=-5;fontSize=6;align=center;verticalAlign=middle;points=[]" parent="1" vertex="1">
          <mxGeometry x="672" y="225" width="19.01" height="10" as="geometry" />
        </mxCell>
        <mxCell id="f8ZGEddBivC9AHqz260Z-550" value="Improper&#xa;cleaning&#xa;technique" style="text;spacingTop=-5;fontSize=6;align=center;verticalAlign=middle;points=[]" parent="1" vertex="1">
          <mxGeometry x="51.99611111111099" y="453.8888888888888" width="30" height="19.999999999999886" as="geometry" />
        </mxCell>
        <mxCell id="f8ZGEddBivC9AHqz260Z-551" value="Incorrect&#xa;brewing&#xa;method" style="text;spacingTop=-5;fontSize=6;align=center;verticalAlign=middle;points=[]" parent="1" vertex="1">
          <mxGeometry x="66.99611111111099" y="392.4988888888888" width="30" height="19.999999999999886" as="geometry" />
        </mxCell>
        <mxCell id="f8ZGEddBivC9AHqz260Z-552" value="" style="edgeStyle=none;endArrow=none;" parent="1" edge="1">
          <mxGeometry width="100" height="100" relative="1" as="geometry">
            <mxPoint x="124.25608024691347" y="400.969598765432" as="sourcePoint" />
            <mxPoint x="147" y="420.5" as="targetPoint" />
          </mxGeometry>
        </mxCell>
        <mxCell id="f8ZGEddBivC9AHqz260Z-553" value="unaware&#xa;of process" style="text;spacingTop=-5;fontSize=6;align=center;verticalAlign=middle;points=[]" parent="1" vertex="1">
          <mxGeometry x="148.59611111111084" y="412.4988888888889" width="30" height="19.999999999999886" as="geometry" />
        </mxCell>
        <mxCell id="f8ZGEddBivC9AHqz260Z-554" value="" style="edgeStyle=none;endArrow=none;strokeWidth=1;" parent="1" edge="1">
          <mxGeometry width="100" height="100" relative="1" as="geometry">
            <mxPoint x="289.53833333333324" y="426.53" as="sourcePoint" />
            <mxPoint x="349.5383333333332" y="426.53" as="targetPoint" />
          </mxGeometry>
        </mxCell>
        <mxCell id="f8ZGEddBivC9AHqz260Z-555" value="" style="edgeStyle=none;endArrow=none;strokeWidth=1;" parent="1" edge="1">
          <mxGeometry width="100" height="100" relative="1" as="geometry">
            <mxPoint x="333.5383333333332" y="396.53" as="sourcePoint" />
            <mxPoint x="393.5383333333332" y="396.53" as="targetPoint" />
          </mxGeometry>
        </mxCell>
        <mxCell id="f8ZGEddBivC9AHqz260Z-556" value="" style="edgeStyle=none;endArrow=none;strokeWidth=2" parent="1" edge="1">
          <mxGeometry width="100" height="100" relative="1" as="geometry">
            <mxPoint x="360.2783333333332" y="446.63" as="sourcePoint" />
            <mxPoint x="420.2783333333332" y="446.63" as="targetPoint" />
          </mxGeometry>
        </mxCell>
        <mxCell id="f8ZGEddBivC9AHqz260Z-557" value="" style="edgeStyle=none;endArrow=none;" parent="1" edge="1">
          <mxGeometry width="100" height="100" relative="1" as="geometry">
            <mxPoint x="330.0083333333332" y="426.53" as="sourcePoint" />
            <mxPoint x="315.95" y="406.53" as="targetPoint" />
          </mxGeometry>
        </mxCell>
        <mxCell id="f8ZGEddBivC9AHqz260Z-558" value="" style="edgeStyle=none;endArrow=none;" parent="1" edge="1">
          <mxGeometry width="100" height="100" relative="1" as="geometry">
            <mxPoint x="289.53833333333324" y="446.53" as="sourcePoint" />
            <mxPoint x="309.53833333333324" y="426.53" as="targetPoint" />
          </mxGeometry>
        </mxCell>
        <mxCell id="f8ZGEddBivC9AHqz260Z-559" value="" style="edgeStyle=none;endArrow=none;" parent="1" edge="1">
          <mxGeometry width="100" height="100" relative="1" as="geometry">
            <mxPoint x="377.9960802469135" y="447.499598765432" as="sourcePoint" />
            <mxPoint x="400.74" y="467.03" as="targetPoint" />
          </mxGeometry>
        </mxCell>
        <mxCell id="f8ZGEddBivC9AHqz260Z-560" value="" style="edgeStyle=none;endArrow=none;strokeWidth=2;" parent="1" edge="1">
          <mxGeometry width="100" height="100" relative="1" as="geometry">
            <mxPoint x="390.55608024691344" y="447.499598765432" as="sourcePoint" />
            <mxPoint x="410.55608024691344" y="427.499598765432" as="targetPoint" />
          </mxGeometry>
        </mxCell>
        <mxCell id="f8ZGEddBivC9AHqz260Z-561" value="Coffee&#xa;machine" style="text;spacingTop=-5;fontSize=8;align=center;verticalAlign=middle;points=[]" parent="1" vertex="1">
          <mxGeometry x="259.53833333333324" y="416.53" width="30" height="19.999999999999886" as="geometry" />
        </mxCell>
        <mxCell id="f8ZGEddBivC9AHqz260Z-562" value="Yeast growth due to &#xa;infrequent cleaning." style="text;spacingTop=-5;fontSize=6;align=center;verticalAlign=middle;points=[];fontStyle=1" parent="1" vertex="1">
          <mxGeometry x="425.36611111111097" y="416.5288888888888" width="30" height="19.999999999999886" as="geometry" />
        </mxCell>
        <mxCell id="f8ZGEddBivC9AHqz260Z-563" value="Mineral deposits &#xa;blocking water lines" style="text;spacingTop=-5;fontSize=6;align=center;verticalAlign=middle;points=[]" parent="1" vertex="1">
          <mxGeometry x="412.99611111111085" y="461.5288888888889" width="30" height="19.999999999999886" as="geometry" />
        </mxCell>
        <mxCell id="f8ZGEddBivC9AHqz260Z-564" value="Grinder" style="text;spacingTop=-5;fontSize=8;align=center;verticalAlign=middle;points=[]" parent="1" vertex="1">
          <mxGeometry x="401.13166666666655" y="387.50222222222226" width="30" height="19.999999999999886" as="geometry" />
        </mxCell>
        <mxCell id="f8ZGEddBivC9AHqz260Z-565" value="Coffee&#xa;reservoir" style="text;spacingTop=-5;fontSize=8;align=center;verticalAlign=middle;points=[]" parent="1" vertex="1">
          <mxGeometry x="423.12166666666656" y="438.0622222222222" width="30" height="19.999999999999886" as="geometry" />
        </mxCell>
        <mxCell id="f8ZGEddBivC9AHqz260Z-566" value="Faulty sensors &#xa;or components." style="text;spacingTop=-5;fontSize=6;align=center;verticalAlign=middle;points=[]" parent="1" vertex="1">
          <mxGeometry x="274.536111111111" y="450.4188888888888" width="30" height="19.999999999999886" as="geometry" />
        </mxCell>
        <mxCell id="f8ZGEddBivC9AHqz260Z-567" value="Residue build-up &#xa;affecting taste" style="text;spacingTop=-5;fontSize=6;align=center;verticalAlign=middle;points=[]" parent="1" vertex="1">
          <mxGeometry x="289.536111111111" y="389.0288888888888" width="30" height="19.999999999999886" as="geometry" />
        </mxCell>
        <mxCell id="f8ZGEddBivC9AHqz260Z-568" value="" style="edgeStyle=none;endArrow=none;" parent="1" edge="1">
          <mxGeometry width="100" height="100" relative="1" as="geometry">
            <mxPoint x="346.79608024691345" y="397.499598765432" as="sourcePoint" />
            <mxPoint x="369.53999999999996" y="417.03" as="targetPoint" />
          </mxGeometry>
        </mxCell>
        <mxCell id="f8ZGEddBivC9AHqz260Z-569" value="Inconsistent &#xa;grind size" style="text;spacingTop=-5;fontSize=6;align=center;verticalAlign=middle;points=[]" parent="1" vertex="1">
          <mxGeometry x="371.13611111111084" y="409.0288888888889" width="30" height="19.999999999999886" as="geometry" />
        </mxCell>
        <mxCell id="f8ZGEddBivC9AHqz260Z-571" value="" style="edgeStyle=none;endArrow=none;" parent="1" edge="1">
          <mxGeometry width="100" height="100" relative="1" as="geometry">
            <mxPoint x="570.3683333333332" y="458.89" as="sourcePoint" />
            <mxPoint x="556.31" y="438.89" as="targetPoint" />
          </mxGeometry>
        </mxCell>
        <mxCell id="f8ZGEddBivC9AHqz260Z-572" value="Ineffective &#xa;cleaning agents" style="text;spacingTop=-5;fontSize=6;align=center;verticalAlign=middle;points=[]" parent="1" vertex="1">
          <mxGeometry x="523.4333333333329" y="436.5277777777775" width="30" height="19.999999999999886" as="geometry" />
        </mxCell>
        <mxCell id="f8ZGEddBivC9AHqz260Z-573" value="dirty sponge" style="text;spacingTop=-5;fontSize=6;align=center;verticalAlign=middle;points=[];fontStyle=1" parent="1" vertex="1">
          <mxGeometry x="506" y="472.4177777777775" width="30" height="19.999999999999886" as="geometry" />
        </mxCell>
        <mxCell id="f8ZGEddBivC9AHqz260Z-574" value="" style="edgeStyle=none;endArrow=none;exitX=0.75;exitY=0.927;exitDx=0;exitDy=0;exitPerimeter=0;" parent="1" source="127" edge="1">
          <mxGeometry width="100" height="100" relative="1" as="geometry">
            <mxPoint x="86.99833333333322" y="570" as="sourcePoint" />
            <mxPoint x="106.99833333333322" y="550" as="targetPoint" />
          </mxGeometry>
        </mxCell>
        <mxCell id="f8ZGEddBivC9AHqz260Z-575" value="Incorrect coffee-to-&#xa;water ratio" style="text;spacingTop=-5;fontSize=6;align=center;verticalAlign=middle;points=[]" parent="1" vertex="1">
          <mxGeometry x="49.051666666666534" y="590.0033333333332" width="30" height="19.999999999999886" as="geometry" />
        </mxCell>
        <mxCell id="f8ZGEddBivC9AHqz260Z-576" value="" style="edgeStyle=none;endArrow=none;" parent="1" edge="1">
          <mxGeometry width="100" height="100" relative="1" as="geometry">
            <mxPoint x="134.0660802469135" y="570.969598765432" as="sourcePoint" />
            <mxPoint x="156.81" y="590.5" as="targetPoint" />
          </mxGeometry>
        </mxCell>
        <mxCell id="f8ZGEddBivC9AHqz260Z-577" value="Ineffective &#xa;descaling methods.&#xa;" style="text;spacingTop=-5;fontSize=6;align=center;verticalAlign=middle;points=[]" parent="1" vertex="1">
          <mxGeometry x="160.99611111111085" y="589.9988888888889" width="30" height="19.999999999999886" as="geometry" />
        </mxCell>
        <mxCell id="f8ZGEddBivC9AHqz260Z-578" value="" style="whiteSpace=wrap;strokeWidth=3;fillColor=none;" parent="1" vertex="1">
          <mxGeometry x="690" y="465.48" width="110" height="49.03" as="geometry" />
        </mxCell>
        <mxCell id="f8ZGEddBivC9AHqz260Z-582" value="" style="edgeStyle=none;endArrow=none;" parent="1" edge="1">
          <mxGeometry width="100" height="100" relative="1" as="geometry">
            <mxPoint x="288.39" y="577.57" as="sourcePoint" />
            <mxPoint x="308.39" y="557.57" as="targetPoint" />
          </mxGeometry>
        </mxCell>
        <mxCell id="f8ZGEddBivC9AHqz260Z-583" value="&gt; 96°C" style="text;spacingTop=-5;fontSize=6;align=center;verticalAlign=middle;points=[]" parent="1" vertex="1">
          <mxGeometry x="305.34333333333336" y="550.0033333333333" width="30" height="19.999999999999886" as="geometry" />
        </mxCell>
        <mxCell id="f8ZGEddBivC9AHqz260Z-586" value="" style="edgeStyle=none;endArrow=none;" parent="1" edge="1">
          <mxGeometry width="100" height="100" relative="1" as="geometry">
            <mxPoint x="298.5383333333332" y="597.5" as="sourcePoint" />
            <mxPoint x="318.5383333333332" y="577.5" as="targetPoint" />
          </mxGeometry>
        </mxCell>
        <mxCell id="f8ZGEddBivC9AHqz260Z-587" value="&lt; 90°C" style="text;spacingTop=-5;fontSize=6;align=center;verticalAlign=middle;points=[]" parent="1" vertex="1">
          <mxGeometry x="271.99833333333305" y="589.9966666666668" width="30" height="19.999999999999886" as="geometry" />
        </mxCell>
        <mxCell id="f8ZGEddBivC9AHqz260Z-588" value="tap water" style="text;spacingTop=-5;fontSize=6;align=center;verticalAlign=middle;points=[]" parent="1" vertex="1">
          <mxGeometry x="480.37333333333305" y="589.9944444444441" width="30" height="19.999999999999886" as="geometry" />
        </mxCell>
        <mxCell id="f8ZGEddBivC9AHqz260Z-590" value="filtered" style="text;spacingTop=-5;fontSize=6;align=center;verticalAlign=middle;points=[]" parent="1" vertex="1">
          <mxGeometry x="513.433333333333" y="590.0044444444441" width="30" height="19.999999999999886" as="geometry" />
        </mxCell>
        <mxCell id="f8ZGEddBivC9AHqz260Z-592" value="" style="endArrow=none;html=1;rounded=0;dashed=1;dashPattern=8 8;strokeWidth=3;" parent="1" edge="1">
          <mxGeometry width="50" height="50" relative="1" as="geometry">
            <mxPoint x="10" y="310" as="sourcePoint" />
            <mxPoint x="820" y="310" as="targetPoint" />
          </mxGeometry>
        </mxCell>
        <mxCell id="f8ZGEddBivC9AHqz260Z-593" value="" style="endArrow=none;html=1;rounded=0;dashed=1;dashPattern=8 8;strokeWidth=3;" parent="1" edge="1">
          <mxGeometry width="50" height="50" relative="1" as="geometry">
            <mxPoint x="11.129999999999999" y="680" as="sourcePoint" />
            <mxPoint x="821.13" y="680" as="targetPoint" />
          </mxGeometry>
        </mxCell>
        <mxCell id="f8ZGEddBivC9AHqz260Z-594" value="&lt;font style=&quot;font-size: 20px;&quot;&gt;Product&lt;br&gt;Process Classification&lt;/font&gt;" style="text;html=1;align=center;verticalAlign=middle;whiteSpace=wrap;rounded=0;" parent="1" vertex="1">
          <mxGeometry x="694.49" y="256.63" width="125.51" height="30" as="geometry" />
        </mxCell>
        <mxCell id="f8ZGEddBivC9AHqz260Z-595" value="&lt;font style=&quot;font-size: 20px;&quot;&gt;Dispersion Analysis&lt;/font&gt;" style="text;html=1;align=center;verticalAlign=middle;whiteSpace=wrap;rounded=0;" parent="1" vertex="1">
          <mxGeometry x="640" y="641.53" width="180" height="30" as="geometry" />
        </mxCell>
        <mxCell id="f8ZGEddBivC9AHqz260Z-596" value="&lt;font style=&quot;font-size: 20px;&quot;&gt;Cause Enumeration&lt;/font&gt;" style="text;html=1;align=center;verticalAlign=middle;whiteSpace=wrap;rounded=0;" parent="1" vertex="1">
          <mxGeometry x="640" y="1030" width="180" height="30" as="geometry" />
        </mxCell>
        <mxCell id="EaLp3jXCRb7vzhPQHFhU-264" value="" style="edgeStyle=none;endArrow=none;" parent="1" edge="1">
          <mxGeometry width="100" height="100" relative="1" as="geometry">
            <mxPoint x="134.00608024691348" y="780.969598765432" as="sourcePoint" />
            <mxPoint x="170" y="830" as="targetPoint" />
          </mxGeometry>
        </mxCell>
        <mxCell id="EaLp3jXCRb7vzhPQHFhU-265" value="Exposure&#xa;to ..." style="text;spacingTop=-5;fontSize=6;align=center;verticalAlign=middle;points=[]" parent="1" vertex="1">
          <mxGeometry x="165.81" y="830.97" width="30" height="26.53" as="geometry" />
        </mxCell>
        <mxCell id="EaLp3jXCRb7vzhPQHFhU-266" value="" style="edgeStyle=none;endArrow=none;" parent="1" edge="1">
          <mxGeometry width="100" height="100" relative="1" as="geometry">
            <mxPoint x="144.04999999999998" y="794.5" as="sourcePoint" />
            <mxPoint x="160.05" y="794.5" as="targetPoint" />
          </mxGeometry>
        </mxCell>
        <mxCell id="EaLp3jXCRb7vzhPQHFhU-267" value="light" style="text;spacingTop=-5;fontSize=6;align=center;verticalAlign=middle;points=[];fontStyle=4" parent="1" vertex="1">
          <mxGeometry x="163.04999999999998" y="792.5" width="19.01" height="10" as="geometry" />
        </mxCell>
        <mxCell id="EaLp3jXCRb7vzhPQHFhU-268" value="" style="edgeStyle=none;endArrow=none;" parent="1" edge="1">
          <mxGeometry width="100" height="100" relative="1" as="geometry">
            <mxPoint x="152.98999999999998" y="807" as="sourcePoint" />
            <mxPoint x="168.99" y="807" as="targetPoint" />
          </mxGeometry>
        </mxCell>
        <mxCell id="EaLp3jXCRb7vzhPQHFhU-269" value="air" style="text;spacingTop=-5;fontSize=6;align=center;verticalAlign=middle;points=[];fontStyle=4" parent="1" vertex="1">
          <mxGeometry x="167.51999999999998" y="803.89" width="19.01" height="10" as="geometry" />
        </mxCell>
        <mxCell id="EaLp3jXCRb7vzhPQHFhU-270" value="" style="edgeStyle=none;endArrow=none;" parent="1" edge="1">
          <mxGeometry width="100" height="100" relative="1" as="geometry">
            <mxPoint x="162" y="818.49" as="sourcePoint" />
            <mxPoint x="176" y="818.49" as="targetPoint" />
          </mxGeometry>
        </mxCell>
        <mxCell id="EaLp3jXCRb7vzhPQHFhU-271" value="moisture" style="text;spacingTop=-5;fontSize=6;align=center;verticalAlign=middle;points=[];fontStyle=4" parent="1" vertex="1">
          <mxGeometry x="181.98999999999998" y="815" width="19.01" height="10" as="geometry" />
        </mxCell>
        <mxCell id="EaLp3jXCRb7vzhPQHFhU-272" value="low quality" style="text;spacingTop=-5;fontSize=6;align=center;verticalAlign=middle;points=[]" parent="1" vertex="1">
          <mxGeometry x="56.00833333333317" y="836.53" width="30" height="19.999999999999886" as="geometry" />
        </mxCell>
        <mxCell id="EaLp3jXCRb7vzhPQHFhU-273" value="" style="edgeStyle=none;endArrow=none;" parent="1" edge="1">
          <mxGeometry width="100" height="100" relative="1" as="geometry">
            <mxPoint x="107.46833333333323" y="816.25" as="sourcePoint" />
            <mxPoint x="93.41" y="796.25" as="targetPoint" />
          </mxGeometry>
        </mxCell>
        <mxCell id="EaLp3jXCRb7vzhPQHFhU-274" value="Inappropriate&#xa;roast level" style="text;spacingTop=-5;fontSize=6;align=center;verticalAlign=middle;points=[]" parent="1" vertex="1">
          <mxGeometry x="66.99611111111099" y="778.7488888888888" width="30" height="19.999999999999886" as="geometry" />
        </mxCell>
        <mxCell id="EaLp3jXCRb7vzhPQHFhU-275" value="" style="edgeStyle=none;endArrow=none;" parent="1" edge="1">
          <mxGeometry width="100" height="100" relative="1" as="geometry">
            <mxPoint x="301.9983333333332" y="815" as="sourcePoint" />
            <mxPoint x="287.94" y="795" as="targetPoint" />
          </mxGeometry>
        </mxCell>
        <mxCell id="EaLp3jXCRb7vzhPQHFhU-276" value="Residue build-up&#xa; affecting taste" style="text;spacingTop=-5;fontSize=6;align=center;verticalAlign=middle;points=[]" parent="1" vertex="1">
          <mxGeometry x="261.526111111111" y="777.4988888888888" width="30" height="19.999999999999886" as="geometry" />
        </mxCell>
        <mxCell id="EaLp3jXCRb7vzhPQHFhU-277" value="" style="edgeStyle=none;endArrow=none;" parent="1" edge="1">
          <mxGeometry width="100" height="100" relative="1" as="geometry">
            <mxPoint x="340.5783333333332" y="816.25" as="sourcePoint" />
            <mxPoint x="326.52" y="796.25" as="targetPoint" />
          </mxGeometry>
        </mxCell>
        <mxCell id="EaLp3jXCRb7vzhPQHFhU-278" value="Infrequent &#xa;cleaning" style="text;spacingTop=-5;fontSize=6;align=center;verticalAlign=middle;points=[];labelBorderColor=none;" parent="1" vertex="1">
          <mxGeometry x="304.166111111111" y="777.4988888888888" width="30" height="19.999999999999886" as="geometry" />
        </mxCell>
        <mxCell id="EaLp3jXCRb7vzhPQHFhU-280" value="" style="edgeStyle=none;endArrow=none;" parent="1" edge="1">
          <mxGeometry width="100" height="100" relative="1" as="geometry">
            <mxPoint x="284.53999999999996" y="830.97" as="sourcePoint" />
            <mxPoint x="300" y="831" as="targetPoint" />
          </mxGeometry>
        </mxCell>
        <mxCell id="EaLp3jXCRb7vzhPQHFhU-281" value="dirty&#xa;sponge" style="text;spacingTop=-5;fontSize=6;align=center;verticalAlign=middle;points=[];fontStyle=5" parent="1" vertex="1">
          <mxGeometry x="264.77" y="828.06" width="19.01" height="10" as="geometry" />
        </mxCell>
        <mxCell id="EaLp3jXCRb7vzhPQHFhU-282" value="" style="edgeStyle=none;endArrow=none;startArrow=oval;startFill=1;" parent="1" edge="1">
          <mxGeometry width="100" height="100" relative="1" as="geometry">
            <mxPoint x="380.0160802469135" y="820" as="sourcePoint" />
            <mxPoint x="402.76" y="834" as="targetPoint" />
          </mxGeometry>
        </mxCell>
        <mxCell id="EaLp3jXCRb7vzhPQHFhU-283" value="Yeast  growth due &#xa;to infrequent cleaning" style="text;spacingTop=-5;fontSize=6;align=center;verticalAlign=middle;points=[];fontStyle=1" parent="1" vertex="1">
          <mxGeometry x="405.60611111111086" y="836.5288888888889" width="30" height="19.999999999999886" as="geometry" />
        </mxCell>
        <mxCell id="EaLp3jXCRb7vzhPQHFhU-284" value="" style="edgeStyle=none;endArrow=none;entryX=1;entryY=1;entryDx=0;entryDy=0;" parent="1" target="citA6ndk6SS6Nec29LGX-266" edge="1">
          <mxGeometry width="100" height="100" relative="1" as="geometry">
            <mxPoint x="534.6083333333332" y="851.19" as="sourcePoint" />
            <mxPoint x="520.55" y="831.19" as="targetPoint" />
          </mxGeometry>
        </mxCell>
        <mxCell id="EaLp3jXCRb7vzhPQHFhU-285" value="Too short or too&#xa; long brewing time" style="text;spacingTop=-5;fontSize=6;align=center;verticalAlign=middle;points=[]" parent="1" vertex="1">
          <mxGeometry x="485.866111111111" y="816.5288888888889" width="30" height="19.999999999999886" as="geometry" />
        </mxCell>
        <mxCell id="EaLp3jXCRb7vzhPQHFhU-286" value="" style="edgeStyle=none;endArrow=none;" parent="1" edge="1">
          <mxGeometry width="100" height="100" relative="1" as="geometry">
            <mxPoint x="573.1883333333333" y="852.44" as="sourcePoint" />
            <mxPoint x="559.13" y="832.44" as="targetPoint" />
          </mxGeometry>
        </mxCell>
        <mxCell id="EaLp3jXCRb7vzhPQHFhU-287" value="Under- or&#xa;overextraction" style="text;spacingTop=-5;fontSize=6;align=center;verticalAlign=middle;points=[]" parent="1" vertex="1">
          <mxGeometry x="536" y="816.5288888888889" width="30" height="19.999999999999886" as="geometry" />
        </mxCell>
        <mxCell id="EaLp3jXCRb7vzhPQHFhU-288" value="" style="edgeStyle=none;endArrow=none;" parent="1" edge="1">
          <mxGeometry width="100" height="100" relative="1" as="geometry">
            <mxPoint x="613.4683333333332" y="838.0600000000001" as="sourcePoint" />
            <mxPoint x="599.41" y="818.0600000000001" as="targetPoint" />
          </mxGeometry>
        </mxCell>
        <mxCell id="EaLp3jXCRb7vzhPQHFhU-289" value="Imbalanced flavors&#xa;due to incorrect ratio" style="text;spacingTop=-5;fontSize=6;align=center;verticalAlign=middle;points=[]" parent="1" vertex="1">
          <mxGeometry x="615.996111111111" y="839.9988888888889" width="30" height="19.999999999999886" as="geometry" />
        </mxCell>
        <mxCell id="EaLp3jXCRb7vzhPQHFhU-292" value="Exposure&#xa;to ..." style="text;spacingTop=-5;fontSize=6;align=center;verticalAlign=middle;points=[]" parent="1" vertex="1">
          <mxGeometry x="264.54" y="968.26" width="30" height="26.53" as="geometry" />
        </mxCell>
        <mxCell id="EaLp3jXCRb7vzhPQHFhU-301" value="" style="edgeStyle=none;endArrow=none;" parent="1" edge="1">
          <mxGeometry width="100" height="100" relative="1" as="geometry">
            <mxPoint x="314.53999999999996" y="942.3899999999999" as="sourcePoint" />
            <mxPoint x="330.54" y="942.3899999999999" as="targetPoint" />
          </mxGeometry>
        </mxCell>
        <mxCell id="EaLp3jXCRb7vzhPQHFhU-302" value="light" style="text;spacingTop=-5;fontSize=6;align=center;verticalAlign=middle;points=[];fontStyle=4" parent="1" vertex="1">
          <mxGeometry x="294.53999999999996" y="940.4200000000001" width="19.01" height="10" as="geometry" />
        </mxCell>
        <mxCell id="EaLp3jXCRb7vzhPQHFhU-303" value="" style="edgeStyle=none;endArrow=none;" parent="1" edge="1">
          <mxGeometry width="100" height="100" relative="1" as="geometry">
            <mxPoint x="298.53999999999996" y="956.71" as="sourcePoint" />
            <mxPoint x="314.54" y="956.71" as="targetPoint" />
          </mxGeometry>
        </mxCell>
        <mxCell id="EaLp3jXCRb7vzhPQHFhU-304" value="air" style="text;spacingTop=-5;fontSize=6;align=center;verticalAlign=middle;points=[];fontStyle=4" parent="1" vertex="1">
          <mxGeometry x="282.99" y="952.5" width="19.01" height="10" as="geometry" />
        </mxCell>
        <mxCell id="EaLp3jXCRb7vzhPQHFhU-305" value="" style="edgeStyle=none;endArrow=none;" parent="1" edge="1">
          <mxGeometry width="100" height="100" relative="1" as="geometry">
            <mxPoint x="290.54" y="966.4200000000001" as="sourcePoint" />
            <mxPoint x="304.54" y="966.4200000000001" as="targetPoint" />
          </mxGeometry>
        </mxCell>
        <mxCell id="EaLp3jXCRb7vzhPQHFhU-306" value="moisture" style="text;spacingTop=-5;fontSize=6;align=center;verticalAlign=middle;points=[];fontStyle=4" parent="1" vertex="1">
          <mxGeometry x="267.32" y="962.5" width="19.01" height="10" as="geometry" />
        </mxCell>
        <mxCell id="EaLp3jXCRb7vzhPQHFhU-309" value="Improper&#xa;cleaning&#xa;technique" style="text;spacingTop=-5;fontSize=6;align=center;verticalAlign=middle;points=[]" parent="1" vertex="1">
          <mxGeometry x="491.356111111111" y="955.4188888888887" width="30" height="19.999999999999886" as="geometry" />
        </mxCell>
        <mxCell id="EaLp3jXCRb7vzhPQHFhU-310" value="Incorrect&#xa;brewing&#xa;method" style="text;spacingTop=-5;fontSize=6;align=center;verticalAlign=middle;points=[]" parent="1" vertex="1">
          <mxGeometry x="518.666111111111" y="957.4988888888888" width="30" height="19.999999999999886" as="geometry" />
        </mxCell>
        <mxCell id="EaLp3jXCRb7vzhPQHFhU-311" value="Incorrect&#xa;beans" style="text;spacingTop=-5;fontSize=6;align=center;verticalAlign=middle;points=[]" parent="1" vertex="1">
          <mxGeometry x="590.346111111111" y="891.5288888888889" width="30" height="19.999999999999886" as="geometry" />
        </mxCell>
        <mxCell id="EaLp3jXCRb7vzhPQHFhU-312" value="&#xa;Incorrect &#xa;program" style="text;spacingTop=-5;fontSize=6;align=center;verticalAlign=middle;points=[]" parent="1" vertex="1">
          <mxGeometry x="622.7661111111108" y="890.418888888889" width="30" height="19.999999999999886" as="geometry" />
        </mxCell>
        <mxCell id="EaLp3jXCRb7vzhPQHFhU-313" value="Attention&#xa;to detail" style="text;spacingTop=-5;fontSize=8;align=center;verticalAlign=middle;points=[]" parent="1" vertex="1">
          <mxGeometry x="636.8916666666665" y="922.0022222222223" width="30" height="19.999999999999886" as="geometry" />
        </mxCell>
        <mxCell id="JI2UxPxZZnfcx40FBiYi-272" value="A" style="text;html=1;align=center;verticalAlign=middle;whiteSpace=wrap;rounded=0;" parent="1" vertex="1">
          <mxGeometry x="157.02999999999997" y="113" width="60" height="30" as="geometry" />
        </mxCell>
        <mxCell id="JI2UxPxZZnfcx40FBiYi-273" value="C" style="text;html=1;align=center;verticalAlign=middle;whiteSpace=wrap;rounded=0;" parent="1" vertex="1">
          <mxGeometry x="307.83" y="113" width="60" height="30" as="geometry" />
        </mxCell>
        <mxCell id="JI2UxPxZZnfcx40FBiYi-274" value="B" style="text;html=1;align=center;verticalAlign=middle;whiteSpace=wrap;rounded=0;" parent="1" vertex="1">
          <mxGeometry x="459.01" y="113" width="60" height="30" as="geometry" />
        </mxCell>
        <mxCell id="JI2UxPxZZnfcx40FBiYi-275" value="B" style="text;html=1;align=center;verticalAlign=middle;whiteSpace=wrap;rounded=0;" parent="1" vertex="1">
          <mxGeometry x="613.5799999999999" y="113" width="60" height="30" as="geometry" />
        </mxCell>
        <mxCell id="citA6ndk6SS6Nec29LGX-263" value="" style="ellipse;whiteSpace=wrap;html=1;labelBackgroundColor=none;fillColor=none;" parent="1" vertex="1">
          <mxGeometry x="299" y="775" width="38" height="22.5" as="geometry" />
        </mxCell>
        <mxCell id="citA6ndk6SS6Nec29LGX-264" value="" style="ellipse;whiteSpace=wrap;html=1;labelBackgroundColor=none;fillColor=none;" parent="1" vertex="1">
          <mxGeometry x="51.050000000000004" y="949.03" width="26" height="11.53" as="geometry" />
        </mxCell>
        <mxCell id="citA6ndk6SS6Nec29LGX-265" value="" style="ellipse;whiteSpace=wrap;html=1;labelBackgroundColor=none;fillColor=none;" parent="1" vertex="1">
          <mxGeometry x="81.77" y="949.03" width="26" height="11.53" as="geometry" />
        </mxCell>
        <mxCell id="citA6ndk6SS6Nec29LGX-266" value="" style="ellipse;whiteSpace=wrap;html=1;labelBackgroundColor=none;fillColor=none;" parent="1" vertex="1">
          <mxGeometry x="473.21" y="810" width="55.3" height="30" as="geometry" />
        </mxCell>
        <mxCell id="citA6ndk6SS6Nec29LGX-269" value="" style="shape=document;whiteSpace=wrap;html=1;boundedLbl=1;size=0.18181818181818182;" parent="1" vertex="1">
          <mxGeometry x="690" y="690" width="131" height="110" as="geometry" />
        </mxCell>
        <mxCell id="citA6ndk6SS6Nec29LGX-270" value="" style="edgeStyle=none;endArrow=none;startArrow=oval;startFill=1;" parent="1" edge="1">
          <mxGeometry width="100" height="100" relative="1" as="geometry">
            <mxPoint x="701.583333333333" y="699.7600000000001" as="sourcePoint" />
            <mxPoint x="714.6899999999999" y="699.44" as="targetPoint" />
          </mxGeometry>
        </mxCell>
        <mxCell id="citA6ndk6SS6Nec29LGX-271" value="" style="edgeStyle=none;endArrow=none;startArrow=oval;startFill=0;" parent="1" edge="1">
          <mxGeometry width="100" height="100" relative="1" as="geometry">
            <mxPoint x="701.3000000000002" y="715.44" as="sourcePoint" />
            <mxPoint x="714.0699999999999" y="715.44" as="targetPoint" />
          </mxGeometry>
        </mxCell>
        <mxCell id="citA6ndk6SS6Nec29LGX-272" value="" style="edgeStyle=none;endArrow=none;" parent="1" edge="1">
          <mxGeometry width="100" height="100" relative="1" as="geometry">
            <mxPoint x="699.413333333333" y="729.2977777777775" as="sourcePoint" />
            <mxPoint x="714.64" y="729.3000000000001" as="targetPoint" />
          </mxGeometry>
        </mxCell>
        <mxCell id="citA6ndk6SS6Nec29LGX-273" value="&lt;font style=&quot;font-size: 6px;&quot;&gt;Cause&lt;/font&gt;" style="text;html=1;align=center;verticalAlign=middle;whiteSpace=wrap;rounded=0;" parent="1" vertex="1">
          <mxGeometry x="698.42" y="735.44" width="17" height="8.47" as="geometry" />
        </mxCell>
        <mxCell id="citA6ndk6SS6Nec29LGX-275" value="&lt;font style=&quot;font-size: 6px;&quot;&gt;Cause&lt;/font&gt;" style="text;html=1;align=center;verticalAlign=middle;whiteSpace=wrap;rounded=0;fontStyle=4" parent="1" vertex="1">
          <mxGeometry x="698.42" y="749.44" width="17" height="8.47" as="geometry" />
        </mxCell>
        <mxCell id="citA6ndk6SS6Nec29LGX-276" value="&lt;font style=&quot;font-size: 6px;&quot;&gt;Cause&lt;/font&gt;" style="text;html=1;align=center;verticalAlign=middle;whiteSpace=wrap;rounded=0;" parent="1" vertex="1">
          <mxGeometry x="698" y="767" width="17" height="8.47" as="geometry" />
        </mxCell>
        <mxCell id="citA6ndk6SS6Nec29LGX-277" value="" style="ellipse;whiteSpace=wrap;html=1;labelBackgroundColor=none;fillColor=none;" parent="1" vertex="1">
          <mxGeometry x="697.54" y="735.44" width="20.3" height="12" as="geometry" />
        </mxCell>
        <mxCell id="citA6ndk6SS6Nec29LGX-278" value="&lt;span&gt;Aggravating&lt;/span&gt;" style="text;html=1;align=center;verticalAlign=middle;whiteSpace=wrap;rounded=0;fontSize=9;" parent="1" vertex="1">
          <mxGeometry x="728.04" y="695" width="40" height="10" as="geometry" />
        </mxCell>
        <mxCell id="citA6ndk6SS6Nec29LGX-279" value="&lt;span&gt;Neutralizing&lt;/span&gt;" style="text;html=1;align=center;verticalAlign=middle;whiteSpace=wrap;rounded=0;fontSize=9;" parent="1" vertex="1">
          <mxGeometry x="728.54" y="707" width="40" height="15" as="geometry" />
        </mxCell>
        <mxCell id="citA6ndk6SS6Nec29LGX-280" value="Undecided" style="text;html=1;align=center;verticalAlign=middle;whiteSpace=wrap;rounded=0;fontSize=9;" parent="1" vertex="1">
          <mxGeometry x="725.54" y="720" width="40" height="15" as="geometry" />
        </mxCell>
        <mxCell id="citA6ndk6SS6Nec29LGX-281" value="&amp;nbsp;Quantitative Evidence" style="text;html=1;align=center;verticalAlign=middle;whiteSpace=wrap;rounded=0;fontSize=9;" parent="1" vertex="1">
          <mxGeometry x="713.54" y="732.5" width="106.46" height="15" as="geometry" />
        </mxCell>
        <mxCell id="citA6ndk6SS6Nec29LGX-284" value="Qualitative Evidence" style="text;html=1;align=center;verticalAlign=middle;whiteSpace=wrap;rounded=0;fontSize=9;" parent="1" vertex="1">
          <mxGeometry x="718" y="749" width="96.46" height="15" as="geometry" />
        </mxCell>
        <mxCell id="citA6ndk6SS6Nec29LGX-286" value="No Evidence (yet)" style="text;html=1;align=center;verticalAlign=middle;whiteSpace=wrap;rounded=0;fontSize=9;" parent="1" vertex="1">
          <mxGeometry x="714" y="766" width="96.46" height="15" as="geometry" />
        </mxCell>
        <mxCell id="citA6ndk6SS6Nec29LGX-287" value="" style="shape=document;whiteSpace=wrap;html=1;boundedLbl=1;size=0.18181818181818182;" parent="1" vertex="1">
          <mxGeometry x="688" y="319.03" width="131" height="60.97" as="geometry" />
        </mxCell>
        <mxCell id="citA6ndk6SS6Nec29LGX-288" value="" style="edgeStyle=none;endArrow=none;" parent="1" edge="1">
          <mxGeometry width="100" height="100" relative="1" as="geometry">
            <mxPoint x="695.0010802469133" y="330" as="sourcePoint" />
            <mxPoint x="715.42" y="330" as="targetPoint" />
          </mxGeometry>
        </mxCell>
        <mxCell id="citA6ndk6SS6Nec29LGX-289" value="" style="edgeStyle=none;endArrow=none;strokeWidth=2;" parent="1" edge="1">
          <mxGeometry width="100" height="100" relative="1" as="geometry">
            <mxPoint x="695.0010802469133" y="343.03" as="sourcePoint" />
            <mxPoint x="715.42" y="343.03" as="targetPoint" />
          </mxGeometry>
        </mxCell>
        <mxCell id="citA6ndk6SS6Nec29LGX-291" value="" style="edgeStyle=none;endArrow=none;strokeWidth=3;" parent="1" edge="1">
          <mxGeometry width="100" height="100" relative="1" as="geometry">
            <mxPoint x="695" y="353.79737654320957" as="sourcePoint" />
            <mxPoint x="716" y="354.27" as="targetPoint" />
          </mxGeometry>
        </mxCell>
        <mxCell id="citA6ndk6SS6Nec29LGX-292" value="&lt;span&gt;Low relevance&lt;/span&gt;" style="text;html=1;align=center;verticalAlign=middle;whiteSpace=wrap;rounded=0;fontSize=9;" parent="1" vertex="1">
          <mxGeometry x="720" y="325" width="65.46" height="10" as="geometry" />
        </mxCell>
        <mxCell id="citA6ndk6SS6Nec29LGX-293" value="&lt;span&gt;Medium relevance&lt;/span&gt;" style="text;html=1;align=center;verticalAlign=middle;whiteSpace=wrap;rounded=0;fontSize=9;" parent="1" vertex="1">
          <mxGeometry x="720.77" y="339.03" width="79.23" height="10" as="geometry" />
        </mxCell>
        <mxCell id="citA6ndk6SS6Nec29LGX-294" value="&lt;span&gt;High relevance&lt;/span&gt;" style="text;html=1;align=center;verticalAlign=middle;whiteSpace=wrap;rounded=0;fontSize=9;" parent="1" vertex="1">
          <mxGeometry x="714.01" y="349.03" width="79.23" height="10" as="geometry" />
        </mxCell>
        <mxCell id="citA6ndk6SS6Nec29LGX-295" value="" style="shape=document;whiteSpace=wrap;html=1;boundedLbl=1;size=0.18181818181818182;" parent="1" vertex="1">
          <mxGeometry x="730" y="13.030000000000001" width="85.77" height="60.97" as="geometry" />
        </mxCell>
        <mxCell id="citA6ndk6SS6Nec29LGX-296" value="Main Responsibility" style="text;html=1;align=center;verticalAlign=middle;whiteSpace=wrap;rounded=0;fontSize=9;" parent="1" vertex="1">
          <mxGeometry x="725.54" y="15" width="98.99" height="10" as="geometry" />
        </mxCell>
        <mxCell id="citA6ndk6SS6Nec29LGX-297" value="A&amp;nbsp; -&amp;nbsp; Alessio&lt;div&gt;B&amp;nbsp; -&amp;nbsp; Bianca&lt;/div&gt;&lt;div style=&quot;&quot;&gt;C&amp;nbsp; -&amp;nbsp; Carlo&lt;/div&gt;" style="text;html=1;align=left;verticalAlign=middle;whiteSpace=wrap;rounded=0;fontSize=9;" parent="1" vertex="1">
          <mxGeometry x="734.97" y="38.11" width="75.03" height="10" as="geometry" />
        </mxCell>
      </root>
    </mxGraphModel>
  </diagram>
</mxfile>
